<svg id="SvgjsSvg1615" width="550" height="550" xmlns="http://www.w3.org/2000/svg" version="1.1" xmlns:xlink="http://www.w3.org/1999/xlink" xmlns:svgjs="http://svgjs.com/svgjs"><defs id="SvgjsDefs1616"></defs><g id="SvgjsG1617"><svg xmlns="http://www.w3.org/2000/svg" enable-background="new 0 0 2000 2000" viewBox="0 0 2000 2000" width="550" height="550"><path fill="#F0E799" fill-rule="evenodd" d="M966.2,176.4c196.7,0,174.2,358.8,316.2,468.2c187.9,144.8,511.2,73.1,511.2,321.5
		c0,436.2-370.4,857.5-827.4,857.5c-456.9,0-759.7-504-759.7-940.2C206.5,447.2,509.2,176.4,966.2,176.4z" clip-rule="evenodd" class="colorF0E799 svgShape"></path><path fill="#ffffff" fill-rule="evenodd" d="M447.6,955.6c35.7,0,64.6,28.9,64.6,64.6c0,35.7-28.9,64.6-64.6,64.6c-35.7,0-64.6-28.9-64.6-64.6
			C383.1,984.5,412,955.6,447.6,955.6z" clip-rule="evenodd" class="colorffffff svgShape"></path><path fill="#ffffff" fill-rule="evenodd" d="M447.6,965.1c30.4,0,55.1,24.7,55.1,55.1c0,30.4-24.7,55.1-55.1,55.1c-30.4,0-55.1-24.7-55.1-55.1
			C392.6,989.8,417.2,965.1,447.6,965.1z" clip-rule="evenodd" class="colorfff svgShape"></path><path fill="#F0E799" fill-rule="evenodd" d="M447.6,968.9c28.3,0,51.3,23,51.3,51.3c0,28.3-23,51.3-51.3,51.3c-28.3,0-51.3-23-51.3-51.3
			C396.4,991.9,419.3,968.9,447.6,968.9z" clip-rule="evenodd" class="colorF0E799 svgShape"></path><path fill="#ffffff" fill-rule="evenodd" d="M468,984.9L468,984.9c6,3.5,8.1,11.2,4.6,17.2l-9.3,16l13.1,13.1c4.9,4.9,4.9,12.9,0,17.8l0,0
			c-4.9,4.9-12.9,4.9-17.8,0l-8.3-8.3l-5.9,10.2c-3.5,6-11.2,8.1-17.2,4.6l0,0c-6-3.5-8.1-11.2-4.6-17.2l9.2-16l-13.1-13.1
			c-4.9-4.9-4.9-12.9,0-17.8l0,0c4.9-4.9,12.9-4.9,17.8,0l8.3,8.3l5.9-10.2C454.3,983.5,462,981.5,468,984.9z" clip-rule="evenodd" class="colorfff svgShape"></path><path fill="#ffffff" fill-rule="evenodd" d="M1242.4 829.6l-21.1 12.2c-7.1 4.1-9.5 13.3-5.4 20.4l4.6 8c5.5 9.4 3.1 13.7 1.4 15.2-4.7 4.2-9 8.7-13.4 13.3-1.3 1.3-5.3 5.9-16.1-.3l-7.3-4.3c-7.1-4.1-16.3-1.7-20.4 5.4l-12.2 21.1c-4.1 7.1-1.7 16.3 5.4 20.4l7.3 4.2c10 5.8 9.8 8.8 8.5 13.1-1.7 5.8-3.6 11.7-4.9 17.7-1.1 5.4-.6 9.2-14.3 9.2h-8.4c-8.2 0-14.9 6.7-14.9 14.9v24.4c0 8.2 6.7 14.9 14.9 14.9h8.4c13.7 0 13.1 3.9 14.3 9.2 1.3 6 3.2 11.9 4.9 17.7 1.3 4.3 1.5 7.3-8.5 13.1l-7.3 4.2c-7.1 4.1-9.5 13.3-5.4 20.4l12.2 21.1c4.1 7.1 13.3 9.5 20.4 5.4l7.3-4.3c10.7-6.2 14.8-1.7 16.1-.3 4.4 4.5 8.7 9.1 13.4 13.3 1.7 1.5 4.1 5.8-1.4 15.2l-4.6 8c-4.1 7.1-1.7 16.3 5.4 20.4l21.1 12.2c7.1 4.1 16.3 1.7 20.4-5.4l4.6-8c5.6-9.6 11-9.2 13.4-8.5 6.7 2.1 12.9 3.5 19.8 5.3 2.5.7 6.9 2.5 6.9 13.9v8.5c0 8.2 6.7 14.9 14.9 14.9h24.4c8.2 0 14.9-6.7 14.9-14.9v-8.5c0-11.4 4.3-13.2 6.9-13.9 6.9-1.8 13.1-3.2 19.8-5.3 2.3-.7 7.8-1.1 13.4 8.5l4.6 8c4.1 7.1 13.3 9.5 20.4 5.4l21.1-12.2c7.1-4.1 9.5-13.3 5.4-20.4l-4.7-8c-5.5-9.4-3.1-13.7-1.4-15.2 4.7-4.2 9-8.7 13.4-13.3 1.3-1.3 5.4-5.9 16.1.3l7.3 4.3c7.1 4.1 16.3 1.7 20.4-5.4l12.2-21.1c4.1-7.1 1.7-16.3-5.4-20.4l-7.3-4.2c-10-5.8-9.8-8.8-8.5-13.1 1.7-5.8 3.6-11.7 4.9-17.7 1.1-5.4.6-9.2 14.3-9.2h8.4c8.2 0 14.9-6.7 14.9-14.9v-24.4c0-8.2-6.7-14.9-14.9-14.9h-8.4c-13.7 0-13.1-3.8-14.3-9.2-1.3-6-3.2-11.9-4.9-17.7-1.3-4.3-1.5-7.2 8.5-13.1l7.3-4.2c7.1-4.1 9.5-13.3 5.4-20.4l-12.2-21.1c-4.1-7.1-13.3-9.5-20.4-5.4l-7.3 4.3c-10.7 6.2-14.8 1.7-16.1.3-4.4-4.5-8.7-9.1-13.4-13.3-1.7-1.5-4.1-5.8 1.4-15.2l4.7-8c4.1-7.1 1.7-16.3-5.4-20.4l-21.1-12.2c-7.1-4.1-16.3-1.7-20.4 5.4l-4.6 8c-5.6 9.6-11 9.2-13.4 8.5-6.7-2.1-12.9-3.5-19.8-5.3-2.5-.7-6.9-2.5-6.9-13.9v-8.5c0-8.2-6.7-14.9-14.9-14.9h-24.4c-8.2 0-14.9 6.7-14.9 14.9v8.5c0 11.4-4.3 13.2-6.9 13.9-6.9 1.8-13.1 3.2-19.8 5.3-2.3.7-7.8 1.1-13.4-8.5l-4.6-8C1258.7 827.9 1249.5 825.4 1242.4 829.6L1242.4 829.6zM1334.6 980.2c17.8 0 32.2 14.4 32.2 32.2 0 17.8-14.4 32.2-32.2 32.2-17.8 0-32.2-14.4-32.2-32.2C1302.5 994.6 1316.9 980.2 1334.6 980.2L1334.6 980.2zM1233.8 1012.4c0-3.8 3.1-6.9 6.9-6.9 3.8 0 6.9 3.1 6.9 6.9 0 24 9.7 45.8 25.5 61.6 15.8 15.8 37.5 25.5 61.6 25.5 3.8 0 6.9 3.1 6.9 6.9 0 3.8-3.1 6.9-6.9 6.9-27.8 0-53-11.3-71.3-29.5C1245.1 1065.4 1233.8 1040.2 1233.8 1012.4L1233.8 1012.4zM1434.1 996.1c.6 3.7-2 7.3-5.7 7.9-3.7.6-7.3-2-7.9-5.7-3-18.2-11.6-34.6-24-47.2-12.5-12.6-28.7-21.4-47-24.5-3.7-.6-6.3-4.2-5.6-7.9.6-3.7 4.2-6.3 7.9-5.6 21.1 3.6 39.9 13.8 54.4 28.4C1420.7 956 1430.7 975 1434.1 996.1L1434.1 996.1zM1334.6 892.9c66 0 119.5 53.5 119.5 119.5s-53.5 119.5-119.5 119.5c-66 0-119.5-53.5-119.5-119.5S1268.6 892.9 1334.6 892.9zM492.1 1165.7l-21 12.2c-7.1 4.1-9.5 13.3-5.4 20.4l4.6 8c5.5 9.4 3.1 13.7 1.4 15.2-4.7 4.2-9 8.7-13.4 13.3-1.3 1.3-5.3 5.9-16-.3l-7.3-4.3c-7.1-4.1-16.3-1.7-20.4 5.4l-12.2 21.1c-4.1 7.1-1.7 16.3 5.4 20.4l7.3 4.2c10 5.8 9.8 8.8 8.5 13.1-1.7 5.8-3.6 11.7-4.9 17.7-1.1 5.4-.6 9.2-14.3 9.2h-8.4c-8.2 0-14.9 6.7-14.9 14.9v24.4c0 8.2 6.7 14.9 14.9 14.9h8.4c13.7 0 13.1 3.9 14.3 9.2 1.3 6 3.2 11.9 4.9 17.7 1.3 4.3 1.5 7.3-8.5 13.1l-7.3 4.2c-7.1 4.1-9.5 13.3-5.4 20.4l12.2 21.1c4.1 7.1 13.3 9.5 20.4 5.4l7.3-4.3c10.7-6.2 14.8-1.7 16-.3 4.4 4.5 8.7 9.1 13.4 13.3 1.7 1.5 4.1 5.8-1.4 15.2l-4.6 8c-4.1 7.1-1.7 16.3 5.4 20.4l21 12.2c7.1 4.1 16.3 1.7 20.4-5.4l4.6-8c5.6-9.6 11-9.2 13.4-8.5 6.7 2.1 12.9 3.5 19.8 5.3 2.5.7 6.9 2.5 6.9 13.9v8.5c0 8.2 6.7 14.9 14.9 14.9h24.4c8.2 0 14.9-6.7 14.9-14.9v-8.5c0-11.4 4.3-13.2 6.9-13.9 6.9-1.8 13.1-3.2 19.8-5.3 2.3-.7 7.8-1.1 13.4 8.5l4.6 8c4.1 7.1 13.3 9.5 20.4 5.4l21.1-12.2c7.1-4.1 9.5-13.3 5.4-20.4l-4.7-8c-5.5-9.4-3.1-13.7-1.4-15.2 4.7-4.2 9-8.7 13.4-13.3 1.3-1.3 5.4-5.9 16.1.3l7.3 4.3c7.1 4.1 16.3 1.7 20.4-5.4l12.2-21.1c4.1-7.1 1.7-16.3-5.4-20.4l-7.3-4.2c-10-5.8-9.8-8.8-8.5-13.1 1.7-5.8 3.6-11.7 4.9-17.7 1.1-5.4.6-9.2 14.3-9.2h8.4c8.2 0 14.9-6.7 14.9-14.9v-24.4c0-8.2-6.7-14.9-14.9-14.9h-8.4c-13.7 0-13.1-3.8-14.3-9.2-1.3-6-3.2-11.9-4.9-17.7-1.3-4.3-1.5-7.2 8.5-13.1l7.3-4.2c7.1-4.1 9.5-13.3 5.4-20.4l-12.2-21.1c-4.1-7.1-13.3-9.5-20.4-5.4l-7.3 4.3c-10.7 6.2-14.8 1.7-16.1.3-4.4-4.5-8.7-9.1-13.4-13.3-1.7-1.5-4.1-5.8 1.4-15.2l4.7-8c4.1-7.1 1.7-16.3-5.4-20.4l-21.1-12.2c-7.1-4.1-16.3-1.7-20.4 5.4l-4.6 8c-5.6 9.6-11 9.2-13.4 8.5-6.7-2.1-12.9-3.5-19.8-5.3-2.5-.7-6.9-2.5-6.9-13.9v-8.5c0-8.2-6.7-14.9-14.9-14.9h-24.4c-8.2 0-14.9 6.7-14.9 14.9v8.5c0 11.4-4.3 13.2-6.9 13.9-6.9 1.8-13.1 3.2-19.8 5.3-2.3.7-7.8 1.1-13.4-8.5l-4.6-8C508.3 1164 499.2 1161.5 492.1 1165.7L492.1 1165.7zM584.3 1316.3c17.8 0 32.2 14.4 32.2 32.2 0 17.8-14.4 32.2-32.2 32.2-17.8 0-32.2-14.4-32.2-32.2C552.1 1330.7 566.5 1316.3 584.3 1316.3L584.3 1316.3zM483.5 1348.5c0-3.8 3.1-6.9 6.9-6.9 3.8 0 6.9 3.1 6.9 6.9 0 24 9.8 45.8 25.5 61.6 15.8 15.8 37.5 25.5 61.6 25.5 3.8 0 6.9 3.1 6.9 6.9 0 3.8-3.1 6.9-6.9 6.9-27.8 0-53-11.3-71.3-29.5C494.8 1401.5 483.5 1376.3 483.5 1348.5L483.5 1348.5zM683.8 1332.2c.6 3.7-2 7.2-5.7 7.8-3.7.6-7.3-2-7.9-5.7-3-18.2-11.6-34.6-24-47.2-12.5-12.6-28.7-21.4-47-24.5-3.7-.6-6.2-4.2-5.6-7.9.6-3.7 4.2-6.3 7.9-5.6 21.1 3.6 39.9 13.8 54.4 28.4C670.3 1292.1 680.3 1311.1 683.8 1332.2L683.8 1332.2zM584.3 1229c66 0 119.5 53.5 119.5 119.5 0 66-53.5 119.5-119.5 119.5-66 0-119.5-53.5-119.5-119.5C464.8 1282.5 518.3 1229 584.3 1229z" clip-rule="evenodd" class="colorffffff svgShape"></path><path fill="#F0E799" fill-rule="evenodd" d="M942.7,1641.9c164.3,0,298.3-12.5,298.3-27.8c0-15.3-134-27.8-298.3-27.8c-164.3,0-298.2,12.5-298.2,27.8
		C644.5,1629.4,778.5,1641.9,942.7,1641.9z" clip-rule="evenodd" class="colorF0E799 svgShape"></path><path fill="#ffffff" fill-rule="evenodd" d="M1283.1 1820.6c102.7 0 186.5-12.5 186.5-27.8 0-15.3-83.8-27.8-186.5-27.8s-186.5 12.5-186.5 27.8C1096.6 1808.1 1180.4 1820.6 1283.1 1820.6zM642.4 1780.3c122.4 0 222.2-14.9 222.2-33.1 0-18.3-99.8-33.1-222.2-33.1s-222.2 14.9-222.2 33.1C420.2 1765.4 520 1780.3 642.4 1780.3z" clip-rule="evenodd" class="colorffffff svgShape"></path><path fill="#F0E799" fill-rule="evenodd" d="M1162.2,534.7h-426c-41.1,0-74.6,33.5-74.6,74.6V809h0l0,0c-6.8,0-12.4,5.6-12.4,12.4v104.8
		c0,6.8,5.6,12.4,12.4,12.4l0,0h0v594c0,41.1,33.5,74.6,74.6,74.6h426c41.1,0,74.6-33.5,74.6-74.6v-455.5c0.3,0,0.7,0,1.1,0l0,0
		c6.8,0,12.4-5.6,12.4-12.4V960c0-6.8-5.6-12.4-12.4-12.4l0,0c-0.4,0-0.7,0-1.1,0V912c0.3,0,0.7,0,1.1,0l0,0
		c6.8,0,12.4-5.6,12.4-12.4V794.9c0-6.8-5.6-12.4-12.4-12.4l0,0c-0.4,0-0.7,0-1.1,0V609.3C1236.8,568.2,1203.3,534.7,1162.2,534.7z" clip-rule="evenodd" class="colorF0E799 svgShape"></path><path fill="#ffffff" fill-rule="evenodd" d="M1162.2,554.6h-426c-30.1,0-54.7,24.6-54.7,54.7v923.3c0,30.1,24.6,54.7,54.7,54.7h426
		c30.1,0,54.7-24.6,54.7-54.7V609.3C1216.9,579.2,1192.3,554.6,1162.2,554.6z" clip-rule="evenodd" class="colorfff svgShape"></path><path fill="#ffffff" fill-rule="evenodd" d="M1162.2,577c-139.7,0-286.3,0-426,0c-17.7,0-32.3,14.5-32.3,32.3v923.3c0,17.7,14.5,32.3,32.3,32.3h426
		c17.8,0,32.3-14.5,32.3-32.3V609.3C1194.5,591.5,1180,577,1162.2,577z" clip-rule="evenodd" class="colorfff svgShape"></path><path fill="#F0E799" fill-rule="evenodd" d="M955.3,644.7l125.8,91.4l-50.4,155.1h-163l-50.4-155.1l131.9-95.8L955.3,644.7L955.3,644.7z M1003,705
		l-53.8-39.1L841.6,744l41.1,126.5h133.1l41.1-126.5L1003,705z" clip-rule="evenodd" class="colorF0E799 svgShape"></path><path fill="#F0E799" fill-rule="evenodd" d="M756.7,790h385.1c29.1,0,52.9,23.8,52.9,52.9v162.4c0,29.1-23.8,52.9-52.9,52.9H756.7
		c-29.1,0-52.9-23.8-52.9-52.9V842.9C703.7,813.8,727.5,790,756.7,790z" clip-rule="evenodd" class="colorF0E799 svgShape"></path><path fill="#F0E799" fill-rule="evenodd" d="M756.7,784.8h385.1c16,0,30.5,6.5,41,17.1c10.5,10.5,17.1,25.1,17.1,41v162.4c0,16-6.5,30.5-17.1,41l0,0
		c-10.5,10.5-25.1,17.1-41,17.1H756.7c-16,0-30.5-6.5-41-17.1c-10.5-10.5-17.1-25.1-17.1-41V842.9c0-16,6.5-30.5,17.1-41
		C726.1,791.3,740.7,784.8,756.7,784.8L756.7,784.8z M1141.8,795.1H756.7c-13.1,0-25.1,5.4-33.7,14c-8.7,8.7-14,20.6-14,33.7v162.4
		c0,13.1,5.4,25.1,14,33.7c8.7,8.7,20.6,14,33.7,14h385.1c13.1,0,25.1-5.4,33.7-14l0,0c8.6-8.6,14-20.6,14-33.7V842.9
		c0-13.1-5.4-25.1-14-33.7C1166.8,800.5,1154.9,795.1,1141.8,795.1z" clip-rule="evenodd" class="colorF0E799 svgShape"></path><path fill="#ffffff" fill-rule="evenodd" d="M1078.5,960.5v-73h15.2c11.3,0,19.3,0.5,24,1.6c4.7,1.1,8.8,2.8,12.4,5.3c4.6,3.2,8.1,7.4,10.5,12.4
			c2.4,5,3.6,10.8,3.6,17.2c0,6.4-1.2,12.2-3.6,17.2c-2.4,5-5.9,9.2-10.5,12.4c-3.5,2.5-7.5,4.2-12.1,5.3c-4.5,1-11.5,1.6-21,1.6
			h-3.3H1078.5L1078.5,960.5z M1098.2,944.2h3.3c7.8,0,13.5-1.6,17.1-4.8c3.6-3.2,5.4-8.3,5.4-15.3c0-7-1.8-12.1-5.4-15.3
			c-3.6-3.2-9.3-4.9-17.1-4.9h-3.3V944.2z" clip-rule="evenodd" class="colorfff svgShape"></path><polygon fill="#ffffff" fill-rule="evenodd" points="1020.6 960.5 1020.6 887.5 1065.3 887.5 1065.3 903.5 1040 903.5 1040 916.2 1063.9 916.2 1063.9 931.8 1040 931.8 1040 944.2 1065.3 944.2 1065.3 960.5" clip-rule="evenodd" class="colorfff svgShape"></polygon><path fill="#ffffff" fill-rule="evenodd" d="M964.5 936.9c3 3.4 5.9 5.9 8.7 7.5 2.9 1.7 5.7 2.5 8.6 2.5 2.7 0 4.9-.7 6.6-2.1 1.7-1.4 2.6-3.2 2.6-5.4 0-2.4-.7-4.3-2.2-5.6-1.5-1.3-4.8-2.7-10-4.1-7.1-1.9-12.2-4.4-15.2-7.5-3-3.1-4.4-7.3-4.4-12.7 0-7 2.3-12.7 7-17.1 4.7-4.4 10.7-6.6 18.2-6.6 4 0 7.8.5 11.4 1.6 3.6 1.1 7 2.7 10.3 4.9l-6.2 14.3c-2.3-1.9-4.6-3.4-7-4.4-2.4-1-4.7-1.5-7-1.5-2.4 0-4.3.6-5.8 1.7-1.5 1.1-2.2 2.6-2.2 4.4 0 1.8.6 3.3 2 4.4 1.3 1.1 3.8 2.1 7.6 3.1l.9.3c8.1 2.2 13.5 4.6 16 7.2 1.7 1.8 3 3.9 3.9 6.4.9 2.5 1.3 5.3 1.3 8.4 0 7.7-2.5 14-7.6 18.7-5.1 4.7-11.9 7.1-20.3 7.1-5.1 0-9.7-.9-13.9-2.6-4.2-1.7-8.2-4.4-12-8.1L964.5 936.9zM948.8 924.2c0 5.3-1 10.2-2.9 14.7-1.9 4.6-4.7 8.7-8.4 12.3-3.7 3.6-8 6.3-12.8 8.3-4.8 1.9-9.8 2.9-14.9 2.9-5.2 0-10.2-1-15-2.9-4.8-2-8.9-4.7-12.6-8.3-3.8-3.6-6.6-7.7-8.6-12.4-1.9-4.6-2.9-9.5-2.9-14.7 0-5.2 1-10.1 2.9-14.7 2-4.6 4.8-8.7 8.6-12.3 3.6-3.6 7.8-6.3 12.6-8.3 4.8-1.9 9.8-2.9 15-2.9 5.2 0 10.2 1 15 2.9 4.8 2 9 4.7 12.7 8.3 3.7 3.6 6.4 7.7 8.4 12.3C947.9 914 948.8 918.9 948.8 924.2L948.8 924.2zM909.9 945.6c5.5 0 10.1-2 13.7-6.1 3.6-4.1 5.4-9.2 5.4-15.4 0-6.1-1.8-11.2-5.5-15.3-3.7-4.1-8.2-6.1-13.6-6.1-5.5 0-10.1 2-13.7 6.1-3.6 4.1-5.4 9.2-5.4 15.3 0 6.2 1.8 11.4 5.3 15.4C899.6 943.6 904.2 945.6 909.9 945.6z" clip-rule="evenodd" class="colorfff svgShape"></path><polygon fill="#ffffff" fill-rule="evenodd" points="821.4 960.5 821.4 887.5 841.3 887.5 841.3 943.5 866 943.5 866 960.5" clip-rule="evenodd" class="colorfff svgShape"></polygon><path fill="#ffffff" fill-rule="evenodd" d="M810.2,890.4v21.7c-2.7-3-5.4-5.2-8.1-6.7c-2.7-1.4-5.6-2.1-8.7-2.1c-5.7,0-10.3,2-13.9,5.9
			c-3.5,3.9-5.3,9-5.3,15.3c0,5.8,1.8,10.7,5.4,14.5c3.6,3.9,8.2,5.8,13.8,5.8c3.1,0,6-0.7,8.7-2.1c2.7-1.4,5.4-3.6,8.1-6.7v21.7
			c-3.1,1.5-6.3,2.7-9.4,3.5c-3.1,0.8-6.3,1.1-9.5,1.1c-4,0-7.7-0.5-11-1.4c-3.4-1-6.5-2.4-9.3-4.3c-5.4-3.7-9.6-8.3-12.5-13.8
			c-2.9-5.6-4.3-11.8-4.3-18.7c0-5.6,0.9-10.7,2.7-15.2c1.8-4.6,4.5-8.7,8.2-12.4c3.4-3.6,7.3-6.2,11.7-8c4.3-1.8,9.1-2.6,14.5-2.6
			c3.2,0,6.3,0.4,9.5,1.1C803.9,887.7,807,888.8,810.2,890.4z" clip-rule="evenodd" class="colorfff svgShape"></path><path fill="#E0CE2F" fill-rule="evenodd" d="M949.2,682.5c16.9,0,30.7-13.8,30.7-30.7c0-16.9-13.8-30.7-30.7-30.7c-16.9,0-30.7,13.8-30.7,30.7
		C918.5,668.7,932.3,682.5,949.2,682.5z" clip-rule="evenodd" class="colorE0CE2F svgShape"></path><path fill="#ffffff" fill-rule="evenodd" d="M949.2,658.9c3.9,0,7.1-3.2,7.1-7.1c0-3.9-3.2-7.1-7.1-7.1s-7.1,3.2-7.1,7.1
		C942.1,655.7,945.3,658.9,949.2,658.9z" clip-rule="evenodd" class="colorfff svgShape"></path><path fill="#152f54" fill-rule="evenodd" d="M1184.7,1727.7c0,0-18.3,18.7-15.4,24.5c2.9,5.9,58.9,47.3,58.9,47.3s5.3-7-3.1-15.8
			c-8.4-8.8-20.8-27.2-14-42C1217.9,1726.9,1184.7,1727.7,1184.7,1727.7z" clip-rule="evenodd" class="color152f54 svgShape"></path><rect width="23.9" height="56.6" x="1218" y="1187.2" fill="#0f3970" fill-rule="evenodd" clip-rule="evenodd" class="color0f3970 svgShape"></rect><rect width="23.9" height="56.6" x="1219.4" y="1099.2" fill="#0f3970" fill-rule="evenodd" clip-rule="evenodd" class="color0f3970 svgShape"></rect><path fill="#0f3970" fill-rule="evenodd" d="M1380.8,1016.6c1.2,7.9-2.8,15-9,16c-6.2,1-12.2-4.6-13.4-12.5c-1.2-7.9,2.8-15,9-16
			S1379.6,1008.7,1380.8,1016.6z" clip-rule="evenodd" class="color0f3970 svgShape"></path><path fill="#f4ae7c" fill-rule="evenodd" d="M1225.4 1349.4c0 0 2.7 3.1 4.2 5 1.5 1.9 3.4 9.1 2.4 10.3-1 1.2-7.3 3-7.5-.8C1224.3 1360.1 1225.4 1349.4 1225.4 1349.4zM1459.3 1319.8c0 0 5.8 13 16.8 15.7 13.5 3.2 19.4 20.2 19.4 24 0 3.9-17.2-8.7-24-9-6.8-.2-10.4 3.2-15.1-5.8-4.6-9-10.4-17.8-10.4-17.8L1459.3 1319.8z" clip-rule="evenodd" class="colorf4ae7c svgShape"></path><path fill="#0f3d86" fill-rule="evenodd" d="M1287,1325.2c6.1,0,11.5-1.2,16.2-3.6c58.3-28.9,4.2-227.8,4.2-227.8s-2.4-9.9-13.4-13.8
			c-4-1.4-13-1.3-23.7-2c-34.9-2.5-36.6,17.8-37.8,25C1231.2,1110.2,1203.4,1324.8,1287,1325.2z" clip-rule="evenodd" class="color0f3d86 svgShape"></path><path fill="#0f3970" fill-rule="evenodd" d="M1303.2,1321.6c58.3-28.9,4.2-227.8,4.2-227.8s-2.7-9-13.4-13.8c-22.5,5.9-27.2,16.6-28.4,22.9
			C1264.5,1109.7,1240.6,1293.9,1303.2,1321.6z" clip-rule="evenodd" class="color0f3970 svgShape"></path><path fill="#152f54" fill-rule="evenodd" d="M1346.2,1766c0,0-3.2,25.9,2.6,28.8c5.8,2.9,75.5,2,75.5,2s0-8.7-12-10.7c-12-1.9-33-9.1-36.6-25
			C1372.2,1745.2,1346.2,1766,1346.2,1766z" clip-rule="evenodd" class="color152f54 svgShape"></path><path fill="#0f3d86" fill-rule="evenodd" d="M1409.3,1370.1c0,0-3.9,49.1-8.6,108.2c-6.3,80.2-13.9,178.7-14.6,197.4c-1.3,32.4-6.5,84.3-6.5,84.3
			s-12.3,12.3-36.9,7.1c0,0-22-74-28.2-152.3c-0.1-1.3-0.2-2.6-0.3-3.9c-5.8-79.7-14.9-247.6-14.9-247.6L1409.3,1370.1z" clip-rule="evenodd" class="color0f3d86 svgShape"></path><path fill="#0f3970" fill-rule="evenodd" d="M1409.3,1370.1c0,0-3.9,49.1-8.6,108.2l-86.3,136.5c-0.1-1.3-0.2-2.6-0.3-3.9
			c-5.8-79.7-14.9-247.6-14.9-247.6L1409.3,1370.1z" clip-rule="evenodd" class="color0f3970 svgShape"></path><path fill="#0f3d86" fill-rule="evenodd" d="M1391.3,1375.9c0,0-71,177.9-117.6,261.5c-46.7,83.6-61.2,106.9-61.2,106.9s-26.7-10.7-29.2-18
			c0,0,17.8-161.4,49.1-200.7c17.7-22.2,38.4-89,39.4-112.3c1-23.3,6.3-69.5,6.3-69.5L1391.3,1375.9z" clip-rule="evenodd" class="color0f3d86 svgShape"></path><path fill="#f4ae7c" fill-rule="evenodd" d="M1373.6,1115.7c-27.7,8.7-75.7-14.9-75.7-14.9s17.9-13.4,23-41.2v0c1-5.4,1.5-11.3,1.3-17.8l25.9,20.9
			l10.1,8.1c0,0,0,2.7-0.5,7.8c-0.4,5.1-1.2,12.5-2.8,21.9C1366.8,1107,1373.6,1115.7,1373.6,1115.7z" clip-rule="evenodd" class="colorf4ae7c svgShape"></path><path fill="#E0CE2F" fill-rule="evenodd" d="M1459.6,1335.8c4.8-4.2,4.9-7,4.9-7s-0.6-6.4-5.4-13c-14.3-19.7-43.2-59.4-46.4-64.5
			c-4.2-6.7-35.8-114.3-35.8-114.3l-79.9-16.2c0,0,66.7,137.6,77.8,154.4c13.7,20.7,49.2,47.1,66.3,59.1c5.7,4,12.7,5.1,12.7,5.1
			S1455,1339.5,1459.6,1335.8z" clip-rule="evenodd" class="colorE0CE2F svgShape"></path><path fill="#8d9fca" fill-rule="evenodd" d="M1272.7,1352.1c-0.1,1.6,1.7,3.5,3.9,4.9c1.7,1.2,3.8,2.1,5,2.8c6.1,2.8,12.1,5.2,18,7.3
			c14.2,5.3,28.1,8.9,43.3,10.3c16.2,1.6,34.3,0,48-1.3c7.7-0.9,14.1-1.6,17.9-1.6h0.5c1.1,0,2.1-0.4,3-1.1
			c0.6-0.4,1.1-24.7,0.8-57.3c0-4.6-0.1-9.3-0.1-14.2c0-1.5,0-3.3-0.2-4.8v-0.5c-0.1-15.3-0.6-31.5-1.3-47.5v-0.3
			c-1.5-35.6-4.3-69.8-9.1-88.9c-4.3-17.6-21.7-37.4-34.6-50.3c-5.9-5.9-13.1-10.2-21-12.7c-13.7-4.3-35-10-39.4-6.2
			c-3.4,2.6-6.4,6-9.2,10c-0.2,0.1-0.2,0.1-0.2,0.2h-0.1c-2.3,3.3-4.4,6.9-6.3,11c-3.2,6.4-5.8,13.9-8.2,22.1
			c-6.2,22.3-9.3,50.5-9.2,80.5c0,7.7,0.2,15.4,0.7,23.2c0.1,2.3,0.2,4.4,0.3,6.5c0.9,19.5,0.8,37.5,0.3,53.3v0.5
			c-0.5,16-1.4,29.6-2.1,39.7C1273.1,1343.9,1272.8,1348.7,1272.7,1352.1z" clip-rule="evenodd" class="color8d9fca svgShape"></path><path fill="#8193c2" fill-rule="evenodd" d="M1273.5,1337.8c1.4-21.3,4-57.8,1.5-100c-0.4-7.9-0.7-15.6-0.7-23.3c9.5-23,17.2-39.7,17.2-39.7h23.9
			C1315.4,1174.8,1333,1294.5,1273.5,1337.8z" clip-rule="evenodd" class="color8193c2 svgShape"></path><path fill="#ed7d5b" fill-rule="evenodd" d="M1358.1,1070.8c0,0,0,2.7-0.5,7.8c-20.6-2.4-36.3-18.4-36.8-19l0,0h0l27.2,3.1L1358.1,1070.8z" clip-rule="evenodd" class="colored7d5b svgShape"></path><path fill="#f4ae7c" fill-rule="evenodd" d="M1366.6,1070.1c0,0-45.8,7.6-50.1-21c-4.3-28.6-13.1-46.9,16-52.9c29.1-6.1,36.4,4,40.2,13.2
			C1376.4,1018.6,1378.4,1067.4,1366.6,1070.1z" clip-rule="evenodd" class="colorf4ae7c svgShape"></path><path fill="#8d9fca" fill-rule="evenodd" d="M1214.9,1347.3c8.6,1.7,10.5,1.1,10.5,1.1s10.5-9.4,14.5-21.9c7.8-23.9,19.6-59.7,21.8-64.4
			c3.3-7.2,75.9-87.4,75.9-87.4l-46-62.9c0,0-62.8,113.2-70.8,131.7c-8.2,19-13.1,52.7-15.6,75.3c-1.5,13.7,2.3,26,2.3,26
			S1208.1,1346,1214.9,1347.3z" clip-rule="evenodd" class="color8d9fca svgShape"></path><path fill="#0f3970" fill-rule="evenodd" d="M1275.6,1297.6v0.5c13.1-3.1,24.2-9.1,33.7-17c17.8-14.6,30-35.9,37.6-58.2c11.8-34.8,12.7-72.1,6.7-90.4
			c-0.8-2.3-1.7-4.5-2.8-6.1c-2.4-4.1-5.2-7.5-8.4-10.4c-10-9.5-22.7-13.2-32.1-14.5c-2.8-0.4-5.2-0.5-7.2-0.6c-2.8-0.1-4.7,0-5.2,0
			h-0.1c-5.9,1.7-10.5,5.8-6.3,11c1.8-0.2,3.6-0.2,5.2-0.2c7.2-0.2,13.5,0.7,18.7,2.6c9,2.8,15.3,8.3,19.7,14.5
			c12.6,17.7,9.9,43.1,9.9,43.1c-1,13.4-3.1,25.3-5.7,35.8c-6,24.1-15.5,41.2-25.3,53.2c-18.2,22.6-38.2,27.5-38.2,27.5
			s-0.5,1.7-0.7,4.8C1275.1,1295.9,1275.6,1297.6,1275.6,1297.6z" clip-rule="evenodd" class="color0f3970 svgShape"></path><path fill="#f4ae7c" fill-rule="evenodd" d="M1457.2 1346.4c0 0 3.7 5.7 7.7 7.2 4 1.6 10.4 6.8 11 5.4.6-1.4-.4-3.8-2.7-5.5-2.4-1.7-3.1-3.8-2.5-5.1C1471.3 1347.1 1457.2 1346.4 1457.2 1346.4zM1225.4 1348.4c-.1 1.8.1 3.5.6 5.2 2 6.4 3.3 18.7-11.4 27.5 0 0-8.9 4.5-10.4-2.5-1.4-6.9.2-4.4-2-14.1-1.9-8.5 2.5-13.8 5.3-19.6 2 .9 4.5 1.9 7.4 2.5C1218.5 1348 1222.3 1348.3 1225.4 1348.4z" clip-rule="evenodd" class="colorf4ae7c svgShape"></path><path fill="#0f3970" fill-rule="evenodd" d="M1302.5,1003.5c-1.2-4.8,0.3-10.2,3.5-13.9c3.1-3.7,7.6-5.8,12.2-6.6c4.6-0.8,9.3-0.3,13.9,0.7
			c4.4,0.9,8.8,2.2,13.3,1.9c5.5-0.3,10.8-3.1,14.4-7.6c3.4-4.2,10.8-3.6,15.2-0.6c4.5,2.9,8.8,8.1,9.8,13.6
			c0.9,5.3,0.4,14.2-7.9,19c-9.8,5.7-40.6,3.7-44.8,3.6c-4.2-0.1-8.6,1-11.4,4.3c-11.4,14,0.6,41.4,0,41.4
			c-10.6,0.1-26.6-25.8-29.2-38c-0.8-3.7-1.3-7.5-0.9-11.2c0.2-1.4,0.5-2.9,1.3-4c1.1-1.8,3.1-2.7,5.1-2.9
			C1299.1,1003,1300.5,1002.9,1302.5,1003.5z" clip-rule="evenodd" class="color0f3970 svgShape"></path><path fill="#0f3970" fill-rule="evenodd" d="M1326.3,1027.1c1.2,7.6,0.4,31.4-5.6,32.3c-6.4-2.4-12.3-24.8-13.5-32.3c-1.2-7.6,27.9-26.3,51.7-21
			C1352.3,1020.8,1333,1015.8,1326.3,1027.1z" clip-rule="evenodd" class="color0f3970 svgShape"></path><path fill="#f4ae7c" fill-rule="evenodd" d="M1327.6,1042.8c-3.7-0.1-7.3-2.3-9-5.6c-1.5-2.8-1.5-6.2-0.2-9.1c0.2-0.5,0.5-1,0.8-1.5
			c0.6-0.8,1.3-1.6,2.1-2.1c2.1-1.3,5-1.2,7,0.1c2.1,1.4,3.3,3.9,3.3,6.3l-1.5,4.6L1327.6,1042.8z" clip-rule="evenodd" class="colorf4ae7c svgShape"></path><path fill="#e97850" fill-rule="evenodd" d="M1352.8,1060.2c6.8,0,10.6-0.2,17.2-0.8c2.7-0.2-2.8,7.2-17.6,1.2
				C1352.1,1060.4,1352.3,1060.2,1352.8,1060.2z" clip-rule="evenodd" class="colore97850 svgShape"></path><path fill="#0f3970" fill-rule="evenodd" d="M1346.2 1024.4c3.3.2 3.1 2.9.7 3.5C1320.8 1034.5 1338 1023.8 1346.2 1024.4zM1360.5 1022.2c-3.1 1.2-2.2 3.7.4 3.5C1387.7 1024.4 1368.2 1019.2 1360.5 1022.2z" clip-rule="evenodd" class="color0f3970 svgShape"></path><path fill="#e97850" fill-rule="evenodd" d="M1359.6,1051.4l0.2,0c2.9-0.6,4.4-1,5-2.1c0.5-1,0-2.1-0.9-4.2c-1-2.2-2.5-5.7-3.9-11.3
				c-0.1-0.4-0.5-0.7-0.9-0.6c-0.4,0.1-0.7,0.5-0.6,0.9c1.3,5.8,2.9,9.3,3.9,11.6c0.6,1.3,1.1,2.5,0.9,2.8c-0.2,0.5-2.3,0.9-3.9,1.3
				c-0.4,0.1-0.7,0.5-0.6,0.9C1358.9,1051.2,1359.3,1051.4,1359.6,1051.4z" clip-rule="evenodd" class="colore97850 svgShape"></path><path fill="#0f3970" fill-rule="evenodd" d="M1368.8 1038.5c1.9-.2 2.6-7.5-2-7C1364.4 1031.8 1365.7 1038.9 1368.8 1038.5zM1345.3 1041.5c1.9-.2 2.6-7.5-2-7C1340.9 1034.7 1342.2 1041.8 1345.3 1041.5z" clip-rule="evenodd" class="color0f3970 svgShape"></path><path fill="#E0CE2F" fill-rule="evenodd" d="M566.9,1160.6c7.7-75.2-46.4-79.4-48.4-12.2c-1.6,56.3-3.3,68.2,3.1,80.8c4.4,8.5,13,18.7,23.1,12.6
			c9.1-5.4,9.1-24.8,10.6-33.7C558,1191.9,565.2,1177,566.9,1160.6z" clip-rule="evenodd" class="colorE0CE2F svgShape"></path><path fill="#0f3970" fill-rule="evenodd" d="M554.5,1319.5L554.5,1319.5c-23.6,61.9-30.4,118.4-29.3,186.3c56.6,15,110.2,10.5,174-10.1
			c-3.6-50.1,27.3-181.3-33-214.1c-44.6,11.5-85.9,15.4-102.2,4.4C561.9,1298.2,558.7,1309.4,554.5,1319.5z" clip-rule="evenodd" class="color0f3970 svgShape"></path><path fill="#f4ae7c" fill-rule="evenodd" d="M585.7,1104.1c7.8,0.5,35.5-11.7,40-23.9c-5.4-7.7-8.6-16.6-9.3-21.5c3.9-21.2,5.4-14.2,2-50.6
			c-6.1-13-17.2-20.3-42.2-21c-2.2,6.3-4.2,13.1-6,20.2c-5,3.3-6.7,18.2-5.4,35.8c-3.5,9.4,1.6,15.6,15.4,18.7
			c-0.4,4.5-7.7,18.9-10.6,22.5C574.3,1092.2,580.2,1101.1,585.7,1104.1z" clip-rule="evenodd" class="colorf4ae7c svgShape"></path><path fill="#0f3970" fill-rule="evenodd" d="M576.2,987.1c25,0.7,36.1,8,42.2,21c-0.3,0.9-11.8,38.8-2,50.6c0.7,4.9,3.9,13.7,9.3,21.5
			c22.2,24,29.4,12.3,47.3,9.8c9.8-17.8-5-11.3-4.9-24.9c0.1-11.6-19.1-10.8-15.7-26.2c3.4-15.1,15.5-61.4-22.4-61.1
			c-11-20.8-92.7-32.4-58.5,25.1C572.9,997.3,574.5,992,576.2,987.1L576.2,987.1z M575.7,1060.6c1.4,0.4,2.9,0.9,4.5,1.2
			c-0.2,2.5-1.2,6.9-2.5,11c-1.1,3.4-2.4,6.7-3.7,8.3c-5.9,11.9-10.8,4-16.7,5.1c2.5-3.8,5.1-6.7,5.2-6.8
			C565,1068.9,571.7,1066.4,575.7,1060.6z" clip-rule="evenodd" class="color0f3970 svgShape"></path><path fill="#ed7d5b" fill-rule="evenodd" d="M599.3,1060.4c-4.5,1-12.9,2-19,1.4c-0.2,2.5-1.2,6.9-2.5,11C584.5,1072.3,596,1064.7,599.3,1060.4z" clip-rule="evenodd" class="colored7d5b svgShape"></path><path fill="#142d4d" fill-rule="evenodd" d="M517.8 1719c9.1 2.3-.7 7.8 4.9 10.6 14.5-4.5 25.7-22.6 32.6-30.1 3.7-4 4.5 2.2 4.6 8.9.1 14.4-3.6 32.7-8.1 37.7-1.6-4.7-1-17.9-1.6-26.2-15.1 8.8-14.9 22-23.3 24.7-18.7-1.7-28.6-3.1-42.6-5.6C483.7 1726.7 507 1735.5 517.8 1719zM738 1715.1c9.2-2 2.9 7.3 9.2 7.2 10.9-10.6 12.7-31.7 15.5-41.6 1.5-5.2 5-.1 8.1 5.9 6.6 12.8 11.5 30.8 9.9 37.3-3.5-3.4-9-15.5-13.3-22.6-9.5 14.7-3.3 26.3-9.6 32.6-17.4 7-27 10.1-40.5 14.2C711 1737.4 735.7 1734.8 738 1715.1z" clip-rule="evenodd" class="color142d4d svgShape"></path><path fill="#f4ae7c" fill-rule="evenodd" d="M742.8 1681.4c1.8 9.8 1.2 21-1.9 33.4 4.7.6.8 7.5 6.2 7.5 10.3-10 12.5-29.2 15-39.7-1.5-1.7-2.8-3.7-3.9-6.1-45.6-110.7-30.3-128.1-70.3-168.7.9-3.2 1.8-6.4 2.6-9.5-14.8 4.5-29 8.1-42.9 10.7l.9 2.8C666.8 1555.2 707.1 1611.4 742.8 1681.4L742.8 1681.4zM554.5 1319.5c-.8 2.2-1.7 4.3-2.5 6.5L554.5 1319.5 554.5 1319.5zM529.1 1506.8c-5.8 44.5 9.8 115.9 5.5 188.7-3.1 7.9-7.7 16.1-14 24.5 4 2.7-2.7 7.1 2.2 9.5 13.6-4.3 24.3-20.4 31.3-28.7-1.3-1.9-2.3-4.3-3.2-7 9.4-80.2 30.3-115.1 18.8-180.3C556.3 1512.5 542.8 1510.2 529.1 1506.8zM487.6 1303.3c-1.9 1.7-7.7 7.8-15.2 14.4-1.5 10.4-9 20.9-22.4 31.5-11.4.4-20.1-4.1-26.2-13.4 11.5-7.8 19.1-16.2 22.7-25.1-12.7 6.3-17.6 5.5-14.7-2.2 2 .2 4.1-.5 6.5-2.1 5.3-6.4 13-8.7 23.3-6.8 3.2-3.2 6.4-6.6 8.2-8.2C473.3 1296.2 478.9 1300.1 487.6 1303.3z" clip-rule="evenodd" class="colorf4ae7c svgShape"></path><path fill="#E0CE2F" fill-rule="evenodd" d="M645.2,1151c17.8,53.5,16.8,51.2,27.1,60.8c7.1,6.5,18.6,13.1,26,3.9c6.7-8.2,0-26.4-1.6-35.3
			C672.4,1050.6,626.4,1094.6,645.2,1151z" clip-rule="evenodd" class="colorE0CE2F svgShape"></path><path fill="#8d9fca" fill-rule="evenodd" d="M561,1289c16.1,16.7,56.2,38.5,121.4,6.1c-15.5-46.8-5.7-63.2-20.4-96.1c-14.6-32.9,21.4-95.2-1.3-107.7
			c-22.7-12.5-37.9-15.7-37.9-15.7s-18.8,23-33.7,25c-14.9,2-13.5-22.2-13.5-22.2s-26.6,10.3-36.1,19.5c-17.1,16.7-3.5,75,8,84.5
			C562,1194.4,570.2,1255.7,561,1289z" clip-rule="evenodd" class="color8d9fca svgShape"></path><path fill="#f4ae7c" fill-rule="evenodd" d="M736.1,1233.9c2.5,0.4,10.6,2.6,20.5,4.3c6.7,8.1,18.6,13.2,35.6,15.1c9.9-5.6,15-14,15.4-25.1
			c-13.9-0.7-24.7-3.9-32.4-9.6c14.1-1.3,17.9-4.5,11.4-9.6c-1.6,1.2-3.8,1.8-6.6,1.6c-7.9-2.7-15.7-0.6-23.4,6.3
			c-4.4-1-8.9-2.2-11.3-2.7C744.6,1220.5,741.8,1226.6,736.1,1233.9z" clip-rule="evenodd" class="colorf4ae7c svgShape"></path><path fill="#E0CE2F" fill-rule="evenodd" d="M460 1296.9c-1-1.2-1.2-3-.4-4.4 18.4-32.1 57.6-83.5 68.1-88.9 6.2-3.2 16.3-5.2 21.7 0 24.5 23.2-45.3 89.9-66.9 107.3-1 .8-2.3 1-3.6.7C470.5 1308.9 465.7 1303.7 460 1296.9zM752.7 1245.3c-.6 1.5-2.1 2.4-3.7 2.4-40.2-9.9-55.2-18.2-64.9-24.9-5.8-4-13.7-6.1-17.5-15.9 9-32.5 62.3 1.1 87.8 11.9 1.2.5 2 1.6 2.3 2.8C758.3 1230.4 756.1 1237.1 752.7 1245.3z" clip-rule="evenodd" class="colorE0CE2F svgShape"></path><path fill="#f4ae7c" fill-rule="evenodd" d="M622.3,1019.3c3.5,1.8,4.1,7.6,1.3,13c-2.8,5.4-7.9,8.3-11.3,6.5c-3.5-1.8-4.1-7.6-1.3-13
			C613.7,1020.4,618.8,1017.5,622.3,1019.3z" clip-rule="evenodd" class="colorf4ae7c svgShape"></path><path fill="#0f3970" fill-rule="evenodd" d="M596.9 1009.9c1 2.2 6.4 3.4 8.9 5 1.3.8 4.2 4 5.6 4.1 4.1.3-5.7-10.7-13.1-11.2C597.3 1007.8 596.5 1009 596.9 1009.9zM586.1 1002.4c-5.4-5.1-20.2-4.6-17.1-1.9 1 .9 5.4.8 6.8 1.2 2.9.7 7.4 3.9 9.7 3.1C586.4 1004.5 586.8 1003.2 586.1 1002.4zM597.8 1025.5c1.9.9 6.8-5.7 2.1-7.9C597.4 1016.5 594.6 1024.1 597.8 1025.5zM571.6 1014.3c-1.9-.9-.1-8.9 4.6-6.7C578.6 1008.7 574.7 1015.7 571.6 1014.3z" clip-rule="evenodd" class="color0f3970 svgShape"></path><path fill="#ed7d5b" fill-rule="evenodd" d="M576.7,1031.8c0.6-0.7-0.8-1.4-1.6-2c-2.8-2.1-3.7-0.6,3.8-13.3c1.5-2.5,2.6-3.7,1.7-4.2
				c-0.8-0.4-1.1,0.7-2.8,3.5c-8.2,13.7-7.4,11.9-2.1,16.1C576.1,1032.1,576.5,1032,576.7,1031.8z" clip-rule="evenodd" class="colored7d5b svgShape"></path><path fill="#ffffff" fill-rule="evenodd" d="M586.4 1043.9c1.1-1.2-.6-1.3-14.1-6.2C568.3 1036.3 576.2 1054.8 586.4 1043.9zM349.9 573.9l-4.4 2.5c-1.5.9-2 2.8-1.1 4.2l1 1.6c1.1 2 .6 2.8.3 3.1-1 .9-1.9 1.8-2.8 2.7-.3.3-1.1 1.2-3.3-.1l-1.5-.9c-1.5-.9-3.4-.4-4.2 1.1l-2.5 4.4c-.9 1.5-.4 3.4 1.1 4.2l1.5.9c2.1 1.2 2 1.8 1.8 2.7-.4 1.2-.7 2.4-1 3.7-.2 1.1-.1 1.9-2.9 1.9H330c-1.7 0-3.1 1.4-3.1 3.1v5c0 1.7 1.4 3.1 3.1 3.1h1.7c2.8 0 2.7.8 2.9 1.9.3 1.2.7 2.5 1 3.7.3.9.3 1.5-1.8 2.7l-1.5.9c-1.5.9-2 2.8-1.1 4.2l2.5 4.4c.9 1.5 2.8 2 4.2 1.1l1.5-.9c2.2-1.3 3.1-.3 3.3-.1.9.9 1.8 1.9 2.8 2.7.3.3.8 1.2-.3 3.1l-1 1.7c-.9 1.5-.4 3.4 1.1 4.2l4.4 2.5c1.5.8 3.4.3 4.2-1.1l1-1.7c1.2-2 2.3-1.9 2.8-1.7 1.4.4 2.7.7 4.1 1.1.5.1 1.4.5 1.4 2.9v1.8c0 1.7 1.4 3.1 3.1 3.1h5c1.7 0 3.1-1.4 3.1-3.1v-1.8c0-2.4.9-2.7 1.4-2.9 1.4-.4 2.7-.7 4.1-1.1.5-.2 1.6-.2 2.8 1.7l1 1.7c.9 1.5 2.8 2 4.2 1.1l4.4-2.5c1.5-.9 2-2.8 1.1-4.2l-1-1.7c-1.1-2-.6-2.8-.3-3.1 1-.9 1.9-1.8 2.8-2.7.3-.3 1.1-1.2 3.3.1l1.5.9c1.5.9 3.4.4 4.2-1.1l2.5-4.4c.9-1.5.4-3.4-1.1-4.2l-1.5-.9c-2.1-1.2-2-1.8-1.8-2.7.4-1.2.7-2.4 1-3.7.2-1.1.1-1.9 2.9-1.9h1.7c1.7 0 3.1-1.4 3.1-3.1v-5c0-1.7-1.4-3.1-3.1-3.1h-1.7c-2.8 0-2.7-.8-2.9-1.9-.3-1.2-.7-2.5-1-3.7-.3-.9-.3-1.5 1.8-2.7l1.5-.9c1.5-.9 2-2.8 1.1-4.2l-2.5-4.4c-.9-1.5-2.8-2-4.2-1.1l-1.5.9c-2.2 1.3-3.1.3-3.3.1-.9-.9-1.8-1.9-2.8-2.7-.3-.3-.8-1.2.3-3.1l1-1.6c.9-1.5.4-3.4-1.1-4.2l-4.4-2.5c-1.5-.9-3.4-.4-4.2 1.1l-1 1.6c-1.2 2-2.3 1.9-2.8 1.7-1.4-.4-2.7-.7-4.1-1.1-.5-.1-1.4-.5-1.4-2.9v-1.8c0-1.7-1.4-3.1-3.1-3.1h-5c-1.7 0-3.1 1.4-3.1 3.1v1.8c0 2.4-.9 2.7-1.4 2.9-1.4.4-2.7.7-4.1 1.1-.5.2-1.6.2-2.8-1.7l-1-1.6C353.2 573.5 351.4 573 349.9 573.9L349.9 573.9zM369 605c3.7 0 6.6 3 6.6 6.6s-3 6.7-6.6 6.7c-3.7 0-6.6-3-6.6-6.7S365.3 605 369 605L369 605zM348.1 611.7c0-.8.6-1.4 1.4-1.4.8 0 1.4.6 1.4 1.4 0 5 2 9.5 5.3 12.7 3.3 3.3 7.8 5.3 12.7 5.3.8 0 1.4.6 1.4 1.4 0 .8-.6 1.4-1.4 1.4-5.8 0-11-2.3-14.7-6.1C350.4 622.6 348.1 617.4 348.1 611.7L348.1 611.7zM389.5 608.3c.1.8-.4 1.5-1.2 1.6-.8.1-1.5-.4-1.6-1.2-.6-3.8-2.4-7.1-5-9.7-2.6-2.6-5.9-4.4-9.7-5.1-.8-.1-1.3-.9-1.2-1.6.1-.8.9-1.3 1.6-1.2 4.4.7 8.3 2.9 11.2 5.9C386.7 600 388.8 603.9 389.5 608.3L389.5 608.3zM369 587c13.6 0 24.7 11.1 24.7 24.7s-11.1 24.7-24.7 24.7c-13.6 0-24.7-11.1-24.7-24.7S355.3 587 369 587zM540.4 490.9l-6.8 3.9c-2.3 1.3-3.1 4.3-1.7 6.6l1.5 2.6c1.8 3 1 4.4.4 4.9-1.5 1.4-2.9 2.8-4.3 4.3-.4.4-1.7 1.9-5.2-.1l-2.4-1.4c-2.3-1.3-5.3-.5-6.6 1.7l-3.9 6.8c-1.3 2.3-.5 5.3 1.7 6.6l2.3 1.4c3.2 1.9 3.2 2.8 2.7 4.2-.6 1.9-1.2 3.8-1.6 5.7-.4 1.7-.2 3-4.6 3h-2.7c-2.7 0-4.8 2.2-4.8 4.8v7.9c0 2.7 2.2 4.8 4.8 4.8h2.7c4.4 0 4.2 1.2 4.6 3 .4 2 1 3.8 1.6 5.7.4 1.4.5 2.3-2.7 4.2l-2.3 1.4c-2.3 1.3-3.1 4.3-1.7 6.6l3.9 6.8c1.3 2.3 4.3 3.1 6.6 1.7l2.4-1.4c3.5-2 4.8-.5 5.2-.1 1.4 1.5 2.8 2.9 4.3 4.3.6.5 1.3 1.9-.4 4.9l-1.5 2.6c-1.3 2.3-.5 5.3 1.7 6.6l6.8 4c2.3 1.3 5.3.5 6.6-1.7l1.5-2.6c1.8-3.1 3.6-3 4.3-2.7 2.2.7 4.2 1.1 6.4 1.7.8.2 2.2.8 2.2 4.5v2.8c0 2.7 2.2 4.8 4.8 4.8h7.9c2.7 0 4.8-2.2 4.8-4.8v-2.8c0-3.7 1.4-4.3 2.2-4.5 2.2-.6 4.2-1 6.4-1.7.7-.2 2.5-.4 4.3 2.7l1.5 2.6c1.3 2.3 4.3 3.1 6.6 1.7l6.8-4c2.3-1.3 3.1-4.3 1.7-6.6l-1.5-2.6c-1.8-3-1-4.4-.4-4.9 1.5-1.3 2.9-2.8 4.3-4.3.4-.4 1.7-1.9 5.2.1l2.4 1.4c2.3 1.3 5.3.5 6.6-1.7l4-6.8c1.3-2.3.5-5.3-1.7-6.6l-2.4-1.4c-3.2-1.9-3.2-2.8-2.7-4.2.6-1.9 1.2-3.8 1.6-5.7.4-1.7.2-3 4.6-3h2.7c2.7 0 4.8-2.2 4.8-4.8V546c0-2.7-2.2-4.8-4.8-4.8h-2.7c-4.4 0-4.2-1.2-4.6-3-.4-2-1-3.8-1.6-5.7-.4-1.4-.5-2.3 2.7-4.2l2.4-1.4c2.3-1.3 3.1-4.3 1.7-6.6l-4-6.8c-1.3-2.3-4.3-3.1-6.6-1.7l-2.4 1.4c-3.5 2-4.8.5-5.2.1-1.4-1.5-2.8-2.9-4.3-4.3-.6-.5-1.3-1.9.4-4.9l1.5-2.6c1.3-2.3.6-5.3-1.7-6.6l-6.8-3.9c-2.3-1.3-5.3-.5-6.6 1.7l-1.5 2.6c-1.8 3.1-3.6 3-4.3 2.7-2.2-.7-4.2-1.1-6.4-1.7-.8-.2-2.2-.8-2.2-4.5V489c0-2.7-2.2-4.8-4.8-4.8h-7.9c-2.7 0-4.8 2.2-4.8 4.8v2.8c0 3.7-1.4 4.3-2.2 4.5-2.2.6-4.2 1-6.4 1.7-.7.2-2.5.4-4.3-2.7l-1.5-2.6C545.7 490.4 542.7 489.6 540.4 490.9L540.4 490.9zM570.2 539.5c5.7 0 10.4 4.7 10.4 10.4 0 5.7-4.7 10.4-10.4 10.4s-10.4-4.6-10.4-10.4C559.8 544.2 564.5 539.5 570.2 539.5L570.2 539.5zM537.6 549.9c0-1.2 1-2.2 2.2-2.2s2.2 1 2.2 2.2c0 7.8 3.1 14.8 8.2 19.9 5.1 5.1 12.1 8.2 19.9 8.2 1.2 0 2.2 1 2.2 2.2 0 1.2-1 2.2-2.2 2.2-9 0-17.1-3.6-23-9.5C541.3 567.1 537.6 558.9 537.6 549.9L537.6 549.9zM602.3 544.7c.2 1.2-.6 2.3-1.8 2.5-1.2.2-2.3-.6-2.5-1.8-1-5.9-3.8-11.2-7.8-15.2-4-4.1-9.3-6.9-15.2-7.9-1.2-.2-2-1.3-1.8-2.6.2-1.2 1.4-2 2.6-1.8 6.8 1.2 12.9 4.5 17.6 9.2C598 531.7 601.2 537.9 602.3 544.7L602.3 544.7zM570.2 511.4c21.3 0 38.6 17.3 38.6 38.6 0 21.3-17.3 38.6-38.6 38.6-21.3 0-38.6-17.3-38.6-38.6C531.6 528.6 548.9 511.4 570.2 511.4zM903 416.8l-4.3 2.5c-1.5.9-2 2.8-1.1 4.2l1 1.7c1.1 2 .6 2.8.3 3.1-1 .9-1.9 1.8-2.8 2.7-.3.3-1.1 1.2-3.3-.1l-1.5-.9c-1.5-.9-3.4-.4-4.2 1.1l-2.5 4.3c-.8 1.5-.3 3.4 1.1 4.2l1.5.9c2.1 1.2 2 1.8 1.8 2.7-.4 1.2-.7 2.4-1 3.7-.2 1.1-.1 1.9-3 1.9h-1.7c-1.7 0-3.1 1.4-3.1 3.1v5c0 1.7 1.4 3.1 3.1 3.1h1.7c2.8 0 2.7.8 3 1.9.3 1.2.6 2.5 1 3.7.3.9.3 1.5-1.8 2.7l-1.5.9c-1.5.9-2 2.8-1.1 4.2l2.5 4.4c.9 1.5 2.8 2 4.2 1.1l1.5-.9c2.2-1.3 3.1-.3 3.3-.1.9.9 1.8 1.9 2.8 2.7.4.3.8 1.2-.3 3.1l-1 1.6c-.8 1.5-.3 3.4 1.1 4.2l4.3 2.5c1.5.9 3.4.3 4.2-1.1l1-1.6c1.2-2 2.3-1.9 2.8-1.8 1.4.4 2.7.7 4.1 1.1.5.1 1.4.5 1.4 2.9v1.8c0 1.7 1.4 3.1 3.1 3.1h5c1.7 0 3.1-1.4 3.1-3.1v-1.8c0-2.4.9-2.7 1.4-2.9 1.4-.4 2.7-.7 4.1-1.1.5-.2 1.6-.2 2.8 1.8l1 1.6c.9 1.5 2.8 2 4.2 1.1l4.4-2.5c1.5-.9 2-2.8 1.1-4.2l-1-1.6c-1.1-2-.6-2.8-.3-3.1 1-.9 1.9-1.8 2.8-2.7.3-.3 1.1-1.2 3.3.1l1.5.9c1.5.9 3.4.4 4.2-1.1l2.5-4.4c.8-1.5.3-3.4-1.1-4.2l-1.5-.9c-2.1-1.2-2-1.8-1.8-2.7.4-1.2.7-2.4 1-3.7.2-1.1.1-1.9 3-1.9h1.7c1.7 0 3.1-1.4 3.1-3.1v-5c0-1.7-1.4-3.1-3.1-3.1h-1.7c-2.8 0-2.7-.8-3-1.9-.3-1.3-.6-2.5-1-3.7-.3-.9-.3-1.5 1.8-2.7l1.5-.9c1.5-.9 2-2.8 1.1-4.2l-2.5-4.3c-.8-1.5-2.7-2-4.2-1.1l-1.5.9c-2.2 1.3-3.1.3-3.3.1-.9-.9-1.8-1.9-2.8-2.7-.4-.3-.8-1.2.3-3.1l1-1.7c.9-1.5.4-3.4-1.1-4.2l-4.4-2.5c-1.5-.9-3.4-.4-4.2 1.1l-1 1.6c-1.1 2-2.3 1.9-2.8 1.8-1.4-.4-2.7-.7-4.1-1.1-.5-.1-1.4-.5-1.4-2.9v-1.8c0-1.7-1.4-3.1-3.1-3.1h-5c-1.7 0-3.1 1.4-3.1 3.1v1.8c0 2.4-.9 2.7-1.4 2.9-1.4.4-2.7.7-4.1 1.1-.5.2-1.6.2-2.8-1.8l-1-1.6C906.4 416.5 904.5 416 903 416.8L903 416.8zM922.1 448c3.7 0 6.6 3 6.6 6.7 0 3.7-3 6.6-6.6 6.6-3.7 0-6.7-3-6.7-6.6C915.4 450.9 918.4 448 922.1 448L922.1 448zM901.3 454.6c0-.8.6-1.4 1.4-1.4.8 0 1.4.6 1.4 1.4 0 5 2 9.5 5.3 12.7 3.3 3.3 7.8 5.3 12.7 5.3.8 0 1.4.6 1.4 1.4 0 .8-.6 1.4-1.4 1.4-5.8 0-11-2.3-14.7-6.1C903.6 465.6 901.3 460.4 901.3 454.6L901.3 454.6zM942.7 451.3c.1.8-.4 1.5-1.2 1.6-.8.1-1.5-.4-1.6-1.2-.6-3.8-2.4-7.1-5-9.7-2.6-2.6-5.9-4.4-9.7-5.1-.8-.1-1.3-.9-1.2-1.6.1-.8.9-1.3 1.6-1.2 4.4.7 8.3 2.9 11.2 5.9C939.9 443 942 446.9 942.7 451.3L942.7 451.3zM922.1 429.9c13.6 0 24.7 11.1 24.7 24.7 0 13.6-11.1 24.7-24.7 24.7-13.6 0-24.7-11.1-24.7-24.7C897.4 441 908.5 429.9 922.1 429.9zM419.7 804.1l-4.4 2.5c-1.5.9-2 2.8-1.1 4.2l1 1.7c1.1 2 .6 2.8.3 3.1-1 .9-1.9 1.8-2.8 2.7-.3.3-1.1 1.2-3.3-.1l-1.5-.9c-1.5-.8-3.4-.3-4.2 1.1l-2.5 4.4c-.8 1.5-.3 3.4 1.1 4.2l1.5.9c2.1 1.2 2 1.8 1.8 2.7-.4 1.2-.7 2.4-1 3.7-.2 1.1-.1 1.9-3 1.9h-1.7c-1.7 0-3.1 1.4-3.1 3.1v5c0 1.7 1.4 3.1 3.1 3.1h1.7c2.8 0 2.7.8 3 1.9.3 1.2.6 2.5 1 3.7.3.9.3 1.5-1.8 2.7l-1.5.9c-1.5.9-2 2.8-1.1 4.2l2.5 4.4c.8 1.5 2.7 2 4.2 1.1l1.5-.9c2.2-1.3 3.1-.3 3.3-.1.9.9 1.8 1.9 2.8 2.7.4.3.8 1.2-.3 3.1l-1 1.7c-.9 1.5-.4 3.4 1.1 4.2l4.4 2.5c1.5.8 3.4.3 4.2-1.1l1-1.7c1.2-2 2.3-1.9 2.8-1.7 1.4.4 2.7.7 4.1 1.1.5.1 1.4.5 1.4 2.9v1.8c0 1.7 1.4 3.1 3.1 3.1h5c1.7 0 3.1-1.4 3.1-3.1v-1.8c0-2.4.9-2.7 1.4-2.9 1.4-.4 2.7-.7 4.1-1.1.5-.2 1.6-.2 2.8 1.7l1 1.7c.8 1.5 2.7 2 4.2 1.1l4.4-2.5c1.5-.8 2-2.7 1.1-4.2l-1-1.7c-1.1-1.9-.6-2.8-.3-3.1 1-.9 1.9-1.8 2.8-2.7.3-.3 1.1-1.2 3.3.1l1.5.9c1.5.9 3.4.3 4.2-1.1l2.5-4.4c.8-1.5.3-3.4-1.1-4.2l-1.5-.9c-2.1-1.2-2-1.8-1.8-2.7.4-1.2.7-2.4 1-3.7.2-1.1.1-1.9 3-1.9h1.7c1.7 0 3.1-1.4 3.1-3.1v-5c0-1.7-1.4-3.1-3.1-3.1H476c-2.8 0-2.7-.8-3-1.9-.3-1.2-.6-2.5-1-3.7-.3-.9-.3-1.5 1.8-2.7l1.5-.9c1.5-.9 2-2.8 1.1-4.2l-2.5-4.4c-.9-1.5-2.8-2-4.2-1.1l-1.5.9c-2.2 1.3-3.1.3-3.3.1-.9-.9-1.8-1.9-2.8-2.7-.4-.3-.8-1.2.3-3.1l1-1.7c.8-1.5.3-3.4-1.1-4.2l-4.4-2.5c-1.5-.9-3.4-.4-4.2 1.1l-1 1.7c-1.1 2-2.3 1.9-2.8 1.7-1.4-.4-2.7-.7-4.1-1.1-.5-.1-1.4-.5-1.4-2.9v-1.8c0-1.7-1.4-3.1-3.1-3.1h-5c-1.7 0-3.1 1.4-3.1 3.1v1.8c0 2.4-.9 2.7-1.4 2.9-1.4.4-2.7.7-4.1 1.1-.5.1-1.6.2-2.8-1.7l-1-1.7C423.1 803.7 421.2 803.2 419.7 804.1L419.7 804.1zM438.8 835.2c3.7 0 6.6 3 6.6 6.7 0 3.7-3 6.6-6.6 6.6-3.7 0-6.7-3-6.7-6.6C432.1 838.2 435.1 835.2 438.8 835.2L438.8 835.2zM417.9 841.9c0-.8.6-1.4 1.4-1.4.8 0 1.4.6 1.4 1.4 0 5 2 9.5 5.3 12.7 3.3 3.3 7.8 5.3 12.7 5.3.8 0 1.4.6 1.4 1.4 0 .8-.6 1.4-1.4 1.4-5.8 0-11-2.3-14.7-6.1C420.3 852.8 417.9 847.6 417.9 841.9L417.9 841.9zM459.3 838.5c.1.8-.4 1.5-1.2 1.6-.8.1-1.5-.4-1.6-1.2-.6-3.8-2.4-7.1-5-9.8-2.6-2.6-5.9-4.4-9.7-5.1-.8-.1-1.3-.9-1.2-1.6.1-.8.9-1.3 1.6-1.2 4.4.7 8.3 2.9 11.2 5.9C456.6 830.2 458.6 834.1 459.3 838.5L459.3 838.5zM438.8 817.2c13.6 0 24.7 11.1 24.7 24.7 0 13.6-11.1 24.7-24.7 24.7-13.6 0-24.7-11.1-24.7-24.7C414.1 828.2 425.1 817.2 438.8 817.2zM1613.9 1036.5l-6.8 3.9c-2.3 1.3-3.1 4.3-1.7 6.6l1.5 2.6c1.8 3 1 4.4.5 4.9-1.5 1.4-2.9 2.8-4.3 4.3-.4.4-1.7 1.9-5.2-.1l-2.4-1.4c-2.3-1.3-5.3-.5-6.6 1.7l-4 6.8c-1.3 2.3-.5 5.3 1.7 6.6l2.3 1.4c3.2 1.9 3.2 2.8 2.7 4.2-.6 1.9-1.2 3.8-1.6 5.7-.4 1.7-.2 3-4.6 3h-2.7c-2.7 0-4.8 2.2-4.8 4.8v7.9c0 2.7 2.2 4.8 4.8 4.8h2.7c4.4 0 4.2 1.2 4.6 3 .4 2 1 3.8 1.6 5.7.4 1.4.5 2.3-2.7 4.2l-2.3 1.4c-2.3 1.3-3.1 4.3-1.7 6.6l4 6.8c1.3 2.3 4.3 3.1 6.6 1.7l2.4-1.4c3.5-2 4.8-.5 5.2-.1 1.4 1.5 2.8 2.9 4.3 4.3.5.5 1.3 1.9-.5 4.9l-1.5 2.6c-1.3 2.3-.5 5.3 1.7 6.6l6.8 4c2.3 1.3 5.3.5 6.6-1.7l1.5-2.6c1.8-3.1 3.6-3 4.3-2.7 2.2.7 4.2 1.1 6.4 1.7.8.2 2.2.8 2.2 4.5v2.8c0 2.7 2.2 4.8 4.8 4.8h7.9c2.7 0 4.8-2.2 4.8-4.8v-2.8c0-3.7 1.4-4.3 2.2-4.5 2.2-.6 4.2-1 6.4-1.7.7-.2 2.5-.4 4.3 2.7l1.5 2.6c1.3 2.3 4.3 3.1 6.6 1.7l6.8-4c2.3-1.3 3.1-4.3 1.7-6.6l-1.5-2.6c-1.8-3-1-4.4-.4-4.9 1.5-1.3 2.9-2.8 4.3-4.3.4-.4 1.7-1.9 5.2.1l2.4 1.4c2.3 1.3 5.3.5 6.6-1.7l4-6.8c1.3-2.3.5-5.3-1.7-6.6l-2.4-1.4c-3.2-1.9-3.2-2.8-2.7-4.2.6-1.9 1.2-3.8 1.6-5.7.4-1.7.2-3 4.6-3h2.7c2.7 0 4.8-2.2 4.8-4.8v-7.9c0-2.7-2.2-4.8-4.8-4.8h-2.7c-4.4 0-4.2-1.2-4.6-3-.4-2-1-3.8-1.6-5.7-.4-1.4-.5-2.3 2.7-4.2l2.4-1.4c2.3-1.3 3.1-4.3 1.7-6.6l-4-6.8c-1.3-2.3-4.3-3.1-6.6-1.7l-2.4 1.4c-3.5 2-4.8.5-5.2.1-1.4-1.5-2.8-2.9-4.3-4.3-.5-.5-1.3-1.9.4-4.9l1.5-2.6c1.3-2.3.5-5.3-1.7-6.6l-6.8-3.9c-2.3-1.3-5.3-.5-6.6 1.7l-1.5 2.6c-1.8 3.1-3.6 3-4.3 2.7-2.2-.7-4.2-1.1-6.4-1.7-.8-.2-2.2-.8-2.2-4.5v-2.8c0-2.7-2.2-4.8-4.8-4.8h-7.9c-2.7 0-4.8 2.2-4.8 4.8v2.8c0 3.7-1.4 4.3-2.2 4.5-2.2.6-4.2 1-6.4 1.7-.7.2-2.5.4-4.3-2.7l-1.5-2.6C1619.1 1036 1616.2 1035.2 1613.9 1036.5L1613.9 1036.5zM1643.6 1085.1c5.7 0 10.4 4.7 10.4 10.4 0 5.7-4.6 10.4-10.4 10.4-5.7 0-10.4-4.6-10.4-10.4C1633.2 1089.8 1637.9 1085.1 1643.6 1085.1L1643.6 1085.1zM1611.1 1095.5c0-1.2 1-2.2 2.2-2.2 1.2 0 2.2 1 2.2 2.2 0 7.8 3.1 14.8 8.2 19.9 5.1 5.1 12.1 8.2 19.9 8.2 1.2 0 2.2 1 2.2 2.2 0 1.2-1 2.2-2.2 2.2-9 0-17.1-3.6-23-9.5C1614.7 1112.7 1611.1 1104.5 1611.1 1095.5L1611.1 1095.5zM1675.8 1090.3c.2 1.2-.6 2.3-1.8 2.5-1.2.2-2.3-.6-2.5-1.8-1-5.9-3.8-11.2-7.8-15.2-4-4.1-9.3-6.9-15.1-7.9-1.2-.2-2-1.3-1.8-2.6.2-1.2 1.3-2 2.6-1.8 6.8 1.2 12.9 4.5 17.6 9.2C1671.4 1077.3 1674.6 1083.5 1675.8 1090.3L1675.8 1090.3zM1643.6 1057c21.3 0 38.6 17.3 38.6 38.6 0 21.3-17.3 38.6-38.6 38.6-21.3 0-38.6-17.3-38.6-38.6C1605.1 1074.2 1622.3 1057 1643.6 1057zM329 1088.2l-6.8 4c-2.3 1.3-3.1 4.3-1.7 6.6l1.5 2.6c1.8 3 1 4.4.5 4.9-1.5 1.3-2.9 2.8-4.3 4.3-.4.4-1.7 1.9-5.2-.1l-2.4-1.4c-2.3-1.3-5.3-.5-6.6 1.7l-4 6.8c-1.3 2.3-.5 5.3 1.7 6.6l2.3 1.4c3.2 1.9 3.2 2.8 2.7 4.2-.6 1.9-1.2 3.8-1.6 5.7-.4 1.7-.2 3-4.6 3h-2.7c-2.7 0-4.8 2.2-4.8 4.8v7.9c0 2.7 2.2 4.8 4.8 4.8h2.7c4.4 0 4.2 1.2 4.6 3 .4 2 1 3.8 1.6 5.7.4 1.4.5 2.3-2.7 4.2l-2.3 1.4c-2.3 1.3-3.1 4.3-1.7 6.6l4 6.8c1.3 2.3 4.3 3.1 6.6 1.7l2.4-1.4c3.5-2 4.8-.5 5.2-.1 1.4 1.5 2.8 2.9 4.3 4.3.5.5 1.3 1.9-.5 4.9l-1.5 2.6c-1.3 2.3-.5 5.3 1.7 6.6l6.8 4c2.3 1.3 5.3.5 6.6-1.7l1.5-2.6c1.8-3.1 3.6-3 4.3-2.7 2.2.7 4.2 1.1 6.4 1.7.8.2 2.2.8 2.2 4.5v2.8c0 2.7 2.2 4.8 4.8 4.8h7.9c2.7 0 4.8-2.2 4.8-4.8v-2.8c0-3.7 1.4-4.3 2.2-4.5 2.2-.6 4.2-1 6.4-1.7.7-.2 2.5-.4 4.3 2.7l1.5 2.6c1.3 2.3 4.3 3.1 6.6 1.7l6.8-4c2.3-1.3 3.1-4.3 1.7-6.6l-1.5-2.6c-1.8-3-1-4.4-.4-4.9 1.5-1.4 2.9-2.8 4.3-4.3.4-.4 1.7-1.9 5.2.1l2.4 1.4c2.3 1.3 5.3.5 6.6-1.7l4-6.8c1.3-2.3.5-5.3-1.7-6.6l-2.4-1.4c-3.2-1.9-3.2-2.8-2.7-4.2.6-1.9 1.2-3.8 1.6-5.7.4-1.7.2-3 4.6-3h2.7c2.7 0 4.8-2.2 4.8-4.8v-7.9c0-2.7-2.2-4.8-4.8-4.8h-2.7c-4.4 0-4.2-1.2-4.6-3-.4-2-1-3.8-1.6-5.7-.4-1.4-.5-2.3 2.7-4.2l2.4-1.4c2.3-1.3 3.1-4.3 1.7-6.6l-4-6.8c-1.3-2.3-4.3-3.1-6.6-1.7l-2.4 1.4c-3.5 2-4.8.5-5.2.1-1.4-1.5-2.8-2.9-4.3-4.3-.5-.5-1.3-1.9.4-4.9l1.5-2.6c1.3-2.3.5-5.3-1.7-6.6l-6.8-4c-2.3-1.3-5.3-.5-6.6 1.7l-1.5 2.6c-1.8 3.1-3.6 3-4.3 2.7-2.2-.7-4.2-1.1-6.4-1.7-.8-.2-2.2-.8-2.2-4.5v-2.8c0-2.7-2.2-4.8-4.8-4.8h-7.9c-2.7 0-4.8 2.2-4.8 4.8v2.8c0 3.7-1.4 4.3-2.2 4.5-2.2.6-4.2 1-6.4 1.7-.7.2-2.5.4-4.3-2.7l-1.5-2.6C334.3 1087.7 331.3 1086.9 329 1088.2L329 1088.2zM358.8 1136.8c5.7 0 10.4 4.6 10.4 10.4 0 5.7-4.6 10.4-10.4 10.4-5.7 0-10.4-4.7-10.4-10.4C348.4 1141.5 353 1136.8 358.8 1136.8L358.8 1136.8zM326.2 1147.2c0-1.2 1-2.2 2.2-2.2 1.2 0 2.2 1 2.2 2.2 0 7.8 3.1 14.8 8.2 19.9 5.1 5.1 12.1 8.2 19.9 8.2 1.2 0 2.2 1 2.2 2.2 0 1.2-1 2.2-2.2 2.2-9 0-17.1-3.6-23-9.5C329.9 1164.3 326.2 1156.2 326.2 1147.2L326.2 1147.2zM390.9 1142c.2 1.2-.6 2.3-1.8 2.5-1.2.2-2.3-.6-2.5-1.8-1-5.9-3.8-11.2-7.8-15.2-4-4.1-9.3-6.9-15.1-7.9-1.2-.2-2-1.4-1.8-2.6.2-1.2 1.4-2 2.6-1.8 6.8 1.2 12.9 4.5 17.6 9.2C386.5 1129 389.8 1135.1 390.9 1142L390.9 1142zM358.8 1108.6c21.3 0 38.6 17.3 38.6 38.6 0 21.3-17.3 38.6-38.6 38.6-21.3 0-38.6-17.3-38.6-38.6C320.2 1125.9 337.5 1108.6 358.8 1108.6z" clip-rule="evenodd" class="colorfff svgShape"></path><g fill="#F0E799" class="color000 svgShape"><path fill="#ffffff" fill-rule="evenodd" d="M733.2,292.5c23,0,41.6,18.6,41.6,41.6c0,23-18.6,41.6-41.6,41.6c-23,0-41.6-18.6-41.6-41.6
			C691.6,311.1,710.2,292.5,733.2,292.5z" clip-rule="evenodd" class="colorffffff svgShape"></path><path fill="#ffffff" fill-rule="evenodd" d="M733.2,298.6c19.6,0,35.5,15.9,35.5,35.5c0,19.6-15.9,35.5-35.5,35.5c-19.6,0-35.5-15.9-35.5-35.5
			C697.7,314.5,713.6,298.6,733.2,298.6z" clip-rule="evenodd" class="colorfff svgShape"></path><path fill="#F0E799" fill-rule="evenodd" d="M733.2,301c18.2,0,33,14.8,33,33c0,18.2-14.8,33-33,33c-18.2,0-33-14.8-33-33
			C700.2,315.8,714.9,301,733.2,301z" clip-rule="evenodd" class="colorF0E799 svgShape"></path><path fill="#ffffff" fill-rule="evenodd" d="M746.3,311.4L746.3,311.4c3.9,2.2,5.2,7.2,3,11.1l-6,10.3l8.4,8.4c3.1,3.1,3.1,8.3,0,11.4l0,0
			c-3.1,3.1-8.3,3.1-11.4,0l-5.4-5.4l-3.8,6.6c-2.2,3.9-7.2,5.2-11.1,3l0,0c-3.9-2.2-5.2-7.2-3-11.1l6-10.3l-8.4-8.4
			c-3.1-3.1-3.1-8.3,0-11.4l0,0c3.1-3.1,8.3-3.1,11.4,0l5.4,5.4l3.8-6.6C737.5,310.5,742.4,309.1,746.3,311.4z" clip-rule="evenodd" class="colorfff svgShape"></path></g><g fill="#F0E799" class="color000 svgShape"><path fill="#ffffff" fill-rule="evenodd" d="M311,931.6c11.5,0,20.8,9.3,20.8,20.8c0,11.5-9.3,20.8-20.8,20.8c-11.5,0-20.8-9.3-20.8-20.8
			C290.2,940.9,299.5,931.6,311,931.6z" clip-rule="evenodd" class="colorffffff svgShape"></path><path fill="#ffffff" fill-rule="evenodd" d="M311,934.6c9.8,0,17.7,7.9,17.7,17.7s-7.9,17.7-17.7,17.7c-9.8,0-17.7-7.9-17.7-17.7S301.2,934.6,311,934.6z" clip-rule="evenodd" class="colorfff svgShape"></path><path fill="#F0E799" fill-rule="evenodd" d="M311,935.8c9.1,0,16.5,7.4,16.5,16.5c0,9.1-7.4,16.5-16.5,16.5c-9.1,0-16.5-7.4-16.5-16.5
			C294.5,943.2,301.9,935.8,311,935.8z" clip-rule="evenodd" class="colorF0E799 svgShape"></path><path fill="#ffffff" fill-rule="evenodd" d="M317.6,941L317.6,941c1.9,1.1,2.6,3.6,1.5,5.5l-3,5.2l4.2,4.2c1.6,1.6,1.6,4.2,0,5.7h0
			c-1.6,1.6-4.1,1.6-5.7,0l-2.7-2.7l-1.9,3.3c-1.1,1.9-3.6,2.6-5.5,1.5l0,0c-1.9-1.1-2.6-3.6-1.5-5.5l3-5.2l-4.2-4.2
			c-1.6-1.6-1.6-4.2,0-5.7l0,0c1.6-1.6,4.2-1.6,5.7,0l2.7,2.7l1.9-3.3C313.1,940.6,315.6,939.9,317.6,941z" clip-rule="evenodd" class="colorfff svgShape"></path></g><g fill="#F0E799" class="color000 svgShape"><path fill="#ffffff" fill-rule="evenodd" d="M598.4,758.4c11.5,0,20.8,9.3,20.8,20.8c0,11.5-9.3,20.8-20.8,20.8c-11.5,0-20.8-9.3-20.8-20.8
			C577.6,767.7,586.9,758.4,598.4,758.4z" clip-rule="evenodd" class="colorffffff svgShape"></path><path fill="#ffffff" fill-rule="evenodd" d="M598.4,761.5c9.8,0,17.7,7.9,17.7,17.7s-7.9,17.7-17.7,17.7s-17.7-7.9-17.7-17.7S588.6,761.5,598.4,761.5z" clip-rule="evenodd" class="colorfff svgShape"></path><path fill="#F0E799" fill-rule="evenodd" d="M598.4,762.7c9.1,0,16.5,7.4,16.5,16.5c0,9.1-7.4,16.5-16.5,16.5c-9.1,0-16.5-7.4-16.5-16.5
			C581.9,770.1,589.3,762.7,598.4,762.7z" clip-rule="evenodd" class="colorF0E799 svgShape"></path><path fill="#ffffff" fill-rule="evenodd" d="M605,767.9L605,767.9c1.9,1.1,2.6,3.6,1.5,5.5l-3,5.2l4.2,4.2c1.6,1.6,1.6,4.2,0,5.7l0,0
			c-1.6,1.6-4.2,1.6-5.7,0l-2.7-2.7l-1.9,3.3c-1.1,1.9-3.6,2.6-5.5,1.5l0,0c-1.9-1.1-2.6-3.6-1.5-5.5l3-5.2l-4.2-4.2
			c-1.6-1.6-1.6-4.2,0-5.7l0,0c1.6-1.6,4.2-1.6,5.7,0l2.7,2.7l1.9-3.3C600.6,767.4,603,766.7,605,767.9z" clip-rule="evenodd" class="colorfff svgShape"></path></g><g fill="#F0E799" class="color000 svgShape"><path fill="#ffffff" fill-rule="evenodd" d="M1647,921.7c11.5,0,20.8,9.3,20.8,20.8c0,11.5-9.3,20.8-20.8,20.8c-11.5,0-20.8-9.3-20.8-20.8
			C1626.2,931,1635.5,921.7,1647,921.7z" clip-rule="evenodd" class="colorffffff svgShape"></path><path fill="#ffffff" fill-rule="evenodd" d="M1647,924.8c9.8,0,17.7,7.9,17.7,17.7c0,9.8-7.9,17.7-17.7,17.7c-9.8,0-17.7-7.9-17.7-17.7
			C1629.3,932.7,1637.2,924.8,1647,924.8z" clip-rule="evenodd" class="colorfff svgShape"></path><path fill="#F0E799" fill-rule="evenodd" d="M1647,926c9.1,0,16.5,7.4,16.5,16.5c0,9.1-7.4,16.5-16.5,16.5c-9.1,0-16.5-7.4-16.5-16.5
			C1630.5,933.4,1637.9,926,1647,926z" clip-rule="evenodd" class="colorF0E799 svgShape"></path><path fill="#ffffff" fill-rule="evenodd" d="M1653.5,931.2L1653.5,931.2c1.9,1.1,2.6,3.6,1.5,5.5l-3,5.2l4.2,4.2c1.6,1.6,1.6,4.1,0,5.7l0,0
			c-1.6,1.6-4.2,1.6-5.7,0l-2.7-2.7l-1.9,3.3c-1.1,1.9-3.6,2.6-5.5,1.5l0,0c-1.9-1.1-2.6-3.6-1.5-5.5l3-5.2l-4.2-4.2
			c-1.6-1.6-1.6-4.2,0-5.7l0,0c1.6-1.6,4.2-1.6,5.7,0l2.7,2.7l1.9-3.3C1649.1,930.7,1651.6,930.1,1653.5,931.2z" clip-rule="evenodd" class="colorfff svgShape"></path></g><g fill="#F0E799" class="color000 svgShape"><path fill="#ffffff" fill-rule="evenodd" d="M1566.6,1303.9c11.5,0,20.8,9.3,20.8,20.8s-9.3,20.8-20.8,20.8c-11.5,0-20.8-9.3-20.8-20.8
			S1555.1,1303.9,1566.6,1303.9z" clip-rule="evenodd" class="colorffffff svgShape"></path><path fill="#ffffff" fill-rule="evenodd" d="M1566.6,1306.9c9.8,0,17.7,7.9,17.7,17.7c0,9.8-7.9,17.7-17.7,17.7c-9.8,0-17.7-7.9-17.7-17.7
			C1548.8,1314.9,1556.8,1306.9,1566.6,1306.9z" clip-rule="evenodd" class="colorfff svgShape"></path><path fill="#F0E799" fill-rule="evenodd" d="M1566.6,1308.1c9.1,0,16.5,7.4,16.5,16.5c0,9.1-7.4,16.5-16.5,16.5c-9.1,0-16.5-7.4-16.5-16.5
			C1550,1315.5,1557.4,1308.1,1566.6,1308.1z" clip-rule="evenodd" class="colorF0E799 svgShape"></path><path fill="#ffffff" fill-rule="evenodd" d="M1573.1,1313.3L1573.1,1313.3c1.9,1.1,2.6,3.6,1.5,5.5l-3,5.2l4.2,4.2c1.6,1.6,1.6,4.2,0,5.7l0,0
			c-1.6,1.6-4.2,1.6-5.7,0l-2.7-2.7l-1.9,3.3c-1.1,1.9-3.6,2.6-5.5,1.5l0,0c-1.9-1.1-2.6-3.6-1.5-5.5l3-5.2l-4.2-4.2
			c-1.6-1.6-1.6-4.2,0-5.7l0,0c1.6-1.6,4.2-1.6,5.7,0l2.7,2.7l1.9-3.3C1568.7,1312.9,1571.2,1312.2,1573.1,1313.3z" clip-rule="evenodd" class="colorfff svgShape"></path></g><g fill="#F0E799" class="color000 svgShape"><path fill="#ffffff" fill-rule="evenodd" d="M454.7,423c35.7,0,64.6,28.9,64.6,64.6c0,35.7-28.9,64.6-64.6,64.6c-35.7,0-64.6-28.9-64.6-64.6
			C390.2,451.9,419.1,423,454.7,423z" clip-rule="evenodd" class="colorffffff svgShape"></path><path fill="#ffffff" fill-rule="evenodd" d="M454.7,432.5c30.4,0,55.1,24.7,55.1,55.1c0,30.4-24.7,55.1-55.1,55.1s-55.1-24.7-55.1-55.1
			C399.7,457.2,424.3,432.5,454.7,432.5z" clip-rule="evenodd" class="colorfff svgShape"></path><path fill="#F0E799" fill-rule="evenodd" d="M454.7,436.3c28.3,0,51.3,23,51.3,51.3c0,28.3-22.9,51.3-51.3,51.3c-28.3,0-51.3-23-51.3-51.3
			C403.5,459.3,426.4,436.3,454.7,436.3z" clip-rule="evenodd" class="colorF0E799 svgShape"></path><path fill="#ffffff" fill-rule="evenodd" d="M475.1,452.3L475.1,452.3c6,3.5,8.1,11.2,4.6,17.2l-9.2,16l13.1,13.1c4.9,4.9,4.9,12.9,0,17.8l0,0
			c-4.9,4.9-12.9,4.9-17.8,0l-8.3-8.3l-5.9,10.2c-3.5,6-11.2,8.1-17.2,4.6l0,0c-6-3.5-8.1-11.2-4.6-17.2l9.3-16l-13.1-13.1
			c-4.9-4.9-4.9-12.9,0-17.8l0,0c4.9-4.9,12.9-4.9,17.8,0l8.3,8.3l5.9-10.2C461.4,451,469.1,448.9,475.1,452.3z" clip-rule="evenodd" class="colorfff svgShape"></path></g></svg></g></svg>