<svg width="1440" height="1764" viewBox="0 0 1440 1764" fill="none" xmlns="http://www.w3.org/2000/svg">
<g style="mix-blend-mode:lighten">
<path d="M118.826 1253C109.926 1133.67 169.072 895.016 476.858 895.016C784.644 895.016 845.409 690.339 837.318 588" stroke="white"/>
</g>
<g style="mix-blend-mode:lighten">
<path d="M128.826 1263C119.926 1143.67 179.072 905.016 486.858 905.016C794.644 905.016 855.409 700.339 847.318 598" stroke="white"/>
</g>
<g style="mix-blend-mode:lighten">
<path d="M138.826 1273C129.926 1153.67 189.072 915.016 496.858 915.016C804.644 915.016 865.409 710.339 857.318 608" stroke="white"/>
</g>
<g style="mix-blend-mode:lighten">
<path d="M148.826 1283C139.926 1163.67 199.072 925.016 506.858 925.016C814.644 925.016 875.409 720.339 867.318 618" stroke="white"/>
</g>
<g style="mix-blend-mode:lighten">
<path d="M158.826 1293C149.926 1173.67 209.072 935.016 516.858 935.016C824.644 935.016 885.409 730.339 877.318 628" stroke="white"/>
</g>
<g style="mix-blend-mode:lighten">
<path d="M168.826 1303C159.926 1183.67 219.072 945.016 526.858 945.016C834.644 945.016 895.409 740.339 887.318 638" stroke="white"/>
</g>
<g style="mix-blend-mode:lighten">
<path d="M178.826 1313C169.926 1193.67 229.072 955.016 536.858 955.016C844.644 955.016 905.409 750.339 897.318 648" stroke="white"/>
</g>
<g style="mix-blend-mode:lighten">
<path d="M188.826 1323C179.926 1203.67 239.072 965.016 546.858 965.016C854.644 965.016 915.409 760.339 907.318 658" stroke="white"/>
</g>
<g style="mix-blend-mode:lighten">
<path d="M198.826 1333C189.926 1213.67 249.072 975.016 556.858 975.016C864.644 975.016 925.409 770.339 917.318 668" stroke="white"/>
</g>
<g style="mix-blend-mode:lighten">
<path d="M208.826 1343C199.926 1223.67 259.072 985.016 566.858 985.016C874.644 985.016 935.409 780.339 927.318 678" stroke="white"/>
</g>
<g style="mix-blend-mode:lighten">
<path d="M218.826 1353C209.926 1233.67 269.072 995.016 576.858 995.016C884.644 995.016 945.409 790.339 937.318 688" stroke="white"/>
</g>
<g style="mix-blend-mode:lighten">
<path d="M228.828 1363C219.928 1243.67 279.074 1005.02 586.86 1005.02C894.646 1005.02 955.411 800.339 947.319 698" stroke="white"/>
</g>
<g style="mix-blend-mode:lighten">
<path d="M238.828 1373C229.928 1253.67 289.074 1015.02 596.86 1015.02C904.646 1015.02 965.411 810.339 957.319 708" stroke="white"/>
</g>
<g style="mix-blend-mode:lighten">
<path d="M248.828 1383C239.928 1263.67 299.074 1025.02 606.86 1025.02C914.646 1025.02 975.411 820.339 967.319 718" stroke="white"/>
</g>
<g style="mix-blend-mode:lighten">
<path d="M258.828 1393C249.928 1273.67 309.074 1035.02 616.86 1035.02C924.646 1035.02 985.411 830.339 977.319 728" stroke="white"/>
</g>
<g style="mix-blend-mode:lighten">
<path d="M268.828 1403C259.928 1283.67 319.074 1045.02 626.86 1045.02C934.646 1045.02 995.411 840.339 987.319 738" stroke="white"/>
</g>
<g style="mix-blend-mode:lighten">
<path d="M278.828 1413C269.928 1293.67 329.074 1055.02 636.86 1055.02C944.646 1055.02 1005.41 850.339 997.319 748" stroke="white"/>
</g>
<g style="mix-blend-mode:lighten">
<path d="M288.828 1423C279.928 1303.67 339.074 1065.02 646.86 1065.02C954.646 1065.02 1015.41 860.339 1007.32 758" stroke="white"/>
</g>
<g style="mix-blend-mode:lighten">
<path d="M298.828 1433C289.928 1313.67 349.074 1075.02 656.86 1075.02C964.646 1075.02 1025.41 870.339 1017.32 768" stroke="white"/>
</g>
<g style="mix-blend-mode:lighten">
<path d="M308.828 1443C299.928 1323.67 359.074 1085.02 666.86 1085.02C974.646 1085.02 1035.41 880.339 1027.32 778" stroke="white"/>
</g>
<g style="mix-blend-mode:lighten">
<path d="M318.828 1453C309.928 1333.67 369.074 1095.02 676.86 1095.02C984.646 1095.02 1045.41 890.339 1037.32 788" stroke="white"/>
</g>
<g style="mix-blend-mode:lighten">
<path d="M328.828 1463C319.928 1343.67 379.074 1105.02 686.86 1105.02C994.646 1105.02 1055.41 900.339 1047.32 798" stroke="white"/>
</g>
<g style="mix-blend-mode:lighten">
<path d="M338.828 1473C329.928 1353.67 389.074 1115.02 696.86 1115.02C1004.65 1115.02 1065.41 910.339 1057.32 808" stroke="white"/>
</g>
<g style="mix-blend-mode:lighten">
<path d="M348.828 1483C339.928 1363.67 399.074 1125.02 706.86 1125.02C1014.65 1125.02 1075.41 920.339 1067.32 818" stroke="white"/>
</g>
<g style="mix-blend-mode:lighten">
<path d="M358.828 1493C349.928 1373.67 409.074 1135.02 716.86 1135.02C1024.65 1135.02 1085.41 930.339 1077.32 828" stroke="white"/>
</g>
<g style="mix-blend-mode:lighten">
<path d="M368.828 1503C359.928 1383.67 419.074 1145.02 726.86 1145.02C1034.65 1145.02 1095.41 940.339 1087.32 838" stroke="white"/>
</g>
<g style="mix-blend-mode:lighten">
<path d="M378.828 1513C369.928 1393.67 429.074 1155.02 736.86 1155.02C1044.65 1155.02 1105.41 950.339 1097.32 848" stroke="white"/>
</g>
<g style="mix-blend-mode:lighten">
<path d="M388.828 1523C379.928 1403.67 439.074 1165.02 746.86 1165.02C1054.65 1165.02 1115.41 960.339 1107.32 858" stroke="white"/>
</g>
<g style="mix-blend-mode:lighten">
<path d="M398.828 1533C389.928 1413.67 449.074 1175.02 756.86 1175.02C1064.65 1175.02 1125.41 970.339 1117.32 868" stroke="white"/>
</g>
<g style="mix-blend-mode:lighten">
<path d="M408.828 1543C399.928 1423.67 459.074 1185.02 766.86 1185.02C1074.65 1185.02 1135.41 980.339 1127.32 878" stroke="white"/>
</g>
<g style="mix-blend-mode:lighten">
<path d="M418.828 1553C409.928 1433.67 469.074 1195.02 776.86 1195.02C1084.65 1195.02 1145.41 990.339 1137.32 888" stroke="white"/>
</g>
<g style="mix-blend-mode:lighten">
<path d="M428.828 1563C419.928 1443.67 479.074 1205.02 786.86 1205.02C1094.65 1205.02 1155.41 1000.34 1147.32 898" stroke="white"/>
</g>
<g style="mix-blend-mode:lighten">
<path d="M438.828 1573C429.928 1453.67 489.074 1215.02 796.86 1215.02C1104.65 1215.02 1165.41 1010.34 1157.32 908" stroke="white"/>
</g>
<g style="mix-blend-mode:lighten">
<path d="M448.828 1583C439.928 1463.67 499.074 1225.02 806.86 1225.02C1114.65 1225.02 1175.41 1020.34 1167.32 918" stroke="white"/>
</g>
<g style="mix-blend-mode:lighten">
<path d="M458.828 1593C449.928 1473.67 509.074 1235.02 816.86 1235.02C1124.65 1235.02 1185.41 1030.34 1177.32 928" stroke="white"/>
</g>
<g style="mix-blend-mode:lighten">
<path d="M468.828 1603C459.928 1483.67 519.074 1245.02 826.86 1245.02C1134.65 1245.02 1195.41 1040.34 1187.32 938" stroke="white"/>
</g>
<g style="mix-blend-mode:lighten">
<path d="M478.828 1613C469.928 1493.67 529.074 1255.02 836.86 1255.02C1144.65 1255.02 1205.41 1050.34 1197.32 948" stroke="white"/>
</g>
<g style="mix-blend-mode:lighten">
<path d="M488.828 1623C479.928 1503.67 539.074 1265.02 846.86 1265.02C1154.65 1265.02 1215.41 1060.34 1207.32 958" stroke="white"/>
</g>
<g style="mix-blend-mode:lighten">
<path d="M498.828 1633C489.928 1513.67 549.074 1275.02 856.86 1275.02C1164.65 1275.02 1225.41 1070.34 1217.32 968" stroke="white"/>
</g>
<g style="mix-blend-mode:lighten">
<path d="M508.828 1643C499.928 1523.67 559.074 1285.02 866.86 1285.02C1174.65 1285.02 1235.41 1080.34 1227.32 978" stroke="white"/>
</g>
<g style="mix-blend-mode:lighten">
<path d="M518.828 1653C509.928 1533.67 569.074 1295.02 876.86 1295.02C1184.65 1295.02 1245.41 1090.34 1237.32 988" stroke="white"/>
</g>
<g style="mix-blend-mode:lighten">
<path d="M528.828 1663C519.928 1543.67 579.074 1305.02 886.86 1305.02C1194.65 1305.02 1255.41 1100.34 1247.32 998" stroke="white"/>
</g>
<g style="mix-blend-mode:lighten">
<path d="M538.828 1673C529.928 1553.67 589.074 1315.02 896.86 1315.02C1204.65 1315.02 1265.41 1110.34 1257.32 1008" stroke="white"/>
</g>
<g style="mix-blend-mode:lighten">
<path d="M548.828 1683C539.928 1563.67 599.074 1325.02 906.86 1325.02C1214.65 1325.02 1275.41 1120.34 1267.32 1018" stroke="white"/>
</g>
<g style="mix-blend-mode:lighten">
<path d="M558.828 1693C549.928 1573.67 609.074 1335.02 916.86 1335.02C1224.65 1335.02 1285.41 1130.34 1277.32 1028" stroke="white"/>
</g>
<g style="mix-blend-mode:lighten">
<path d="M568.828 1703C559.928 1583.67 619.074 1345.02 926.86 1345.02C1234.65 1345.02 1295.41 1140.34 1287.32 1038" stroke="white"/>
</g>
<g style="mix-blend-mode:lighten">
<path d="M578.828 1713C569.928 1593.67 629.074 1355.02 936.86 1355.02C1244.65 1355.02 1305.41 1150.34 1297.32 1048" stroke="white"/>
</g>
<g style="mix-blend-mode:lighten">
<path d="M588.828 1723C579.928 1603.67 639.074 1365.02 946.86 1365.02C1254.65 1365.02 1315.41 1160.34 1307.32 1058" stroke="white"/>
</g>
<g style="mix-blend-mode:lighten">
<path d="M598.828 1733C589.928 1613.67 649.074 1375.02 956.86 1375.02C1264.65 1375.02 1325.41 1170.34 1317.32 1068" stroke="white"/>
</g>
<g style="mix-blend-mode:lighten">
<path d="M608.828 1743C599.928 1623.67 659.074 1385.02 966.86 1385.02C1274.65 1385.02 1335.41 1180.34 1327.32 1078" stroke="white"/>
</g>
<g style="mix-blend-mode:lighten">
<path d="M618.828 1753C609.928 1633.67 669.074 1395.02 976.86 1395.02C1284.65 1395.02 1345.41 1190.34 1337.32 1088" stroke="white"/>
</g>
<g style="mix-blend-mode:lighten">
<path d="M628.828 1763C619.928 1643.67 679.074 1405.02 986.86 1405.02C1294.65 1405.02 1355.41 1200.34 1347.32 1098" stroke="white"/>
</g>
<g style="mix-blend-mode:lighten">
<path d="M203.913 1393.48C164.431 1280.52 159.793 1034.69 457.092 955.025C754.391 875.364 760.11 661.934 725.807 565.176" stroke="white"/>
</g>
<g style="mix-blend-mode:lighten">
<path d="M216.161 1400.55C176.679 1287.59 172.042 1041.76 469.34 962.096C766.639 882.435 772.358 669.004 738.055 572.247" stroke="white"/>
</g>
<g style="mix-blend-mode:lighten">
<path d="M228.407 1407.62C188.926 1294.66 184.288 1048.83 481.586 969.167C778.885 889.506 784.604 676.076 750.301 579.318" stroke="white"/>
</g>
<g style="mix-blend-mode:lighten">
<path d="M240.655 1414.69C201.174 1301.73 196.536 1055.9 493.834 976.238C791.133 896.577 796.852 683.147 762.549 586.389" stroke="white"/>
</g>
<g style="mix-blend-mode:lighten">
<path d="M252.903 1421.76C213.422 1308.8 208.784 1062.97 506.082 983.309C803.381 903.648 809.1 690.218 774.798 593.46" stroke="white"/>
</g>
<g style="mix-blend-mode:lighten">
<path d="M265.149 1428.83C225.668 1315.87 221.03 1070.04 518.328 990.38C815.627 910.719 821.346 697.289 787.044 600.531" stroke="white"/>
</g>
<g style="mix-blend-mode:lighten">
<path d="M277.397 1435.9C237.916 1322.94 233.278 1077.11 530.576 997.451C827.875 917.79 833.594 704.36 799.292 607.602" stroke="white"/>
</g>
<g style="mix-blend-mode:lighten">
<path d="M289.645 1442.97C250.164 1330.02 245.526 1084.18 542.824 1004.52C840.123 924.861 845.842 711.431 811.54 614.674" stroke="white"/>
</g>
<g style="mix-blend-mode:lighten">
<path d="M301.893 1450.04C262.412 1337.09 257.774 1091.25 555.073 1011.59C852.371 931.932 858.09 718.502 823.788 621.744" stroke="white"/>
</g>
<g style="mix-blend-mode:lighten">
<path d="M314.139 1457.12C274.658 1344.16 270.02 1098.33 567.319 1018.66C864.617 939.004 870.336 725.573 836.034 628.816" stroke="white"/>
</g>
<g style="mix-blend-mode:lighten">
<path d="M326.387 1464.19C286.906 1351.23 282.268 1105.4 579.567 1025.74C876.865 946.074 882.585 732.644 848.282 635.886" stroke="white"/>
</g>
<g style="mix-blend-mode:lighten">
<path d="M338.635 1471.26C299.154 1358.3 294.516 1112.47 591.815 1032.81C889.113 953.146 894.833 739.715 860.53 642.958" stroke="white"/>
</g>
<g style="mix-blend-mode:lighten">
<path d="M350.881 1478.33C311.4 1365.37 306.762 1119.54 604.061 1039.88C901.359 960.217 907.079 746.787 872.776 650.029" stroke="white"/>
</g>
<g style="mix-blend-mode:lighten">
<path d="M363.129 1485.4C323.648 1372.44 319.01 1126.61 616.309 1046.95C913.607 967.288 919.327 753.857 885.024 657.1" stroke="white"/>
</g>
<g style="mix-blend-mode:lighten">
<path d="M375.378 1492.47C335.896 1379.51 331.258 1133.68 628.557 1054.02C925.855 974.359 931.575 760.929 897.272 664.171" stroke="white"/>
</g>
<g style="mix-blend-mode:lighten">
<path d="M387.624 1499.54C348.142 1386.58 343.504 1140.75 640.803 1061.09C938.102 981.43 943.821 768 909.518 671.242" stroke="white"/>
</g>
<g style="mix-blend-mode:lighten">
<path d="M399.872 1506.61C360.39 1393.65 355.752 1147.82 653.051 1068.16C950.35 988.501 956.069 775.071 921.766 678.313" stroke="white"/>
</g>
<g style="mix-blend-mode:lighten">
<path d="M412.122 1513.68C372.64 1400.73 368.002 1154.89 665.301 1075.23C962.6 995.572 968.319 782.142 934.016 685.384" stroke="white"/>
</g>
<g style="mix-blend-mode:lighten">
<path d="M424.368 1520.76C384.886 1407.8 380.249 1161.97 677.547 1082.3C974.846 1002.64 980.565 789.213 946.262 692.455" stroke="white"/>
</g>
<g style="mix-blend-mode:lighten">
<path d="M436.614 1527.83C397.133 1414.87 392.495 1169.04 689.793 1089.37C987.092 1009.71 992.811 796.284 958.508 699.526" stroke="white"/>
</g>
<g style="mix-blend-mode:lighten">
<path d="M448.864 1534.9C409.383 1421.94 404.745 1176.11 702.043 1096.45C999.342 1016.79 1005.06 803.355 970.758 706.597" stroke="white"/>
</g>
<g style="mix-blend-mode:lighten">
<path d="M461.11 1541.97C421.629 1429.01 416.991 1183.18 714.289 1103.52C1011.59 1023.86 1017.31 810.426 983.005 713.668" stroke="white"/>
</g>
<g style="mix-blend-mode:lighten">
<path d="M473.356 1549.04C433.875 1436.08 429.237 1190.25 726.535 1110.59C1023.83 1030.93 1029.55 817.497 995.251 720.74" stroke="white"/>
</g>
<g style="mix-blend-mode:lighten">
<path d="M485.606 1556.11C446.125 1443.15 441.487 1197.32 738.785 1117.66C1036.08 1038 1041.8 824.568 1007.5 727.811" stroke="white"/>
</g>
<g style="mix-blend-mode:lighten">
<path d="M497.852 1563.18C458.371 1450.22 453.733 1204.39 751.032 1124.73C1048.33 1045.07 1054.05 831.639 1019.75 734.882" stroke="white"/>
</g>
<g style="mix-blend-mode:lighten">
<path d="M510.098 1570.25C470.617 1457.29 465.979 1211.46 763.278 1131.8C1060.58 1052.14 1066.3 838.71 1031.99 741.953" stroke="white"/>
</g>
<g style="mix-blend-mode:lighten">
<path d="M522.348 1577.32C482.867 1464.37 478.229 1218.53 775.528 1138.87C1072.83 1059.21 1078.55 845.781 1044.24 749.024" stroke="white"/>
</g>
<g style="mix-blend-mode:lighten">
<path d="M534.594 1584.39C495.113 1471.44 490.475 1225.6 787.774 1145.94C1085.07 1066.28 1090.79 852.853 1056.49 756.095" stroke="white"/>
</g>
<g style="mix-blend-mode:lighten">
<path d="M546.84 1591.47C507.359 1478.51 502.721 1232.68 800.02 1153.01C1097.32 1073.35 1103.04 859.923 1068.74 763.166" stroke="white"/>
</g>
<g style="mix-blend-mode:lighten">
<path d="M559.09 1598.54C519.609 1485.58 514.971 1239.75 812.27 1160.09C1109.57 1080.42 1115.29 866.995 1080.99 770.237" stroke="white"/>
</g>
<g style="mix-blend-mode:lighten">
<path d="M571.337 1605.61C531.855 1492.65 527.217 1246.82 824.516 1167.16C1121.81 1087.5 1127.53 874.065 1093.23 777.308" stroke="white"/>
</g>
<g style="mix-blend-mode:lighten">
<path d="M583.587 1612.68C544.105 1499.72 539.467 1253.89 836.766 1174.23C1134.06 1094.57 1139.78 881.137 1105.48 784.379" stroke="white"/>
</g>
<g style="mix-blend-mode:lighten">
<path d="M595.833 1619.75C556.351 1506.79 551.713 1260.96 849.012 1181.3C1146.31 1101.64 1152.03 888.208 1117.73 791.45" stroke="white"/>
</g>
<g style="mix-blend-mode:lighten">
<path d="M608.079 1626.82C568.597 1513.86 563.96 1268.03 861.258 1188.37C1158.56 1108.71 1164.28 895.279 1129.97 798.521" stroke="white"/>
</g>
<g style="mix-blend-mode:lighten">
<path d="M620.329 1633.89C580.847 1520.93 576.21 1275.1 873.508 1195.44C1170.81 1115.78 1176.53 902.35 1142.22 805.593" stroke="white"/>
</g>
<g style="mix-blend-mode:lighten">
<path d="M632.575 1640.96C593.094 1528 588.456 1282.17 885.754 1202.51C1183.05 1122.85 1188.77 909.421 1154.47 812.663" stroke="white"/>
</g>
<g style="mix-blend-mode:lighten">
<path d="M644.821 1648.03C605.34 1535.08 600.702 1289.24 898 1209.58C1195.3 1129.92 1201.02 916.492 1166.72 819.735" stroke="white"/>
</g>
<g style="mix-blend-mode:lighten">
<path d="M657.071 1655.11C617.59 1542.15 612.952 1296.32 910.25 1216.65C1207.55 1136.99 1213.27 923.563 1178.97 826.805" stroke="white"/>
</g>
<g style="mix-blend-mode:lighten">
<path d="M669.317 1662.18C629.836 1549.22 625.198 1303.39 922.496 1223.73C1219.79 1144.06 1225.51 930.634 1191.21 833.877" stroke="white"/>
</g>
<g style="mix-blend-mode:lighten">
<path d="M681.563 1669.25C642.082 1556.29 637.444 1310.46 934.742 1230.8C1232.04 1151.14 1237.76 937.705 1203.46 840.948" stroke="white"/>
</g>
<g style="mix-blend-mode:lighten">
<path d="M693.813 1676.32C654.332 1563.36 649.694 1317.53 946.992 1237.87C1244.29 1158.21 1250.01 944.776 1215.71 848.019" stroke="white"/>
</g>
<g style="mix-blend-mode:lighten">
<path d="M706.059 1683.39C666.578 1570.43 661.94 1324.6 959.239 1244.94C1256.54 1165.28 1262.26 951.848 1227.95 855.09" stroke="white"/>
</g>
<g style="mix-blend-mode:lighten">
<path d="M718.305 1690.46C678.824 1577.5 674.186 1331.67 971.485 1252.01C1268.78 1172.35 1274.5 958.918 1240.2 862.161" stroke="white"/>
</g>
<g style="mix-blend-mode:lighten">
<path d="M730.555 1697.53C691.074 1584.57 686.436 1338.74 983.735 1259.08C1281.03 1179.42 1286.75 965.99 1252.45 869.232" stroke="white"/>
</g>
<g style="mix-blend-mode:lighten">
<path d="M742.801 1704.6C703.32 1591.64 698.682 1345.81 995.981 1266.15C1293.28 1186.49 1299 973.061 1264.7 876.303" stroke="white"/>
</g>
<g style="mix-blend-mode:lighten">
<path d="M755.047 1711.67C715.566 1598.72 710.928 1352.88 1008.23 1273.22C1305.53 1193.56 1311.24 980.132 1276.94 883.374" stroke="white"/>
</g>
<g style="mix-blend-mode:lighten">
<path d="M767.297 1718.75C727.816 1605.79 723.178 1359.96 1020.48 1280.29C1317.78 1200.63 1323.49 987.203 1289.19 890.446" stroke="white"/>
</g>
<g style="mix-blend-mode:lighten">
<path d="M779.544 1725.82C740.062 1612.86 735.424 1367.03 1032.72 1287.37C1330.02 1207.7 1335.74 994.274 1301.44 897.516" stroke="white"/>
</g>
<g style="mix-blend-mode:lighten">
<path d="M791.79 1732.89C752.308 1619.93 747.67 1374.1 1044.97 1294.44C1342.27 1214.78 1347.99 1001.34 1313.68 904.587" stroke="white"/>
</g>
<g style="mix-blend-mode:lighten">
<path d="M804.04 1739.96C764.558 1627 759.92 1381.17 1057.22 1301.51C1354.52 1221.85 1360.24 1008.42 1325.93 911.658" stroke="white"/>
</g>
<g style="mix-blend-mode:lighten">
<path d="M816.286 1747.03C776.804 1634.07 772.167 1388.24 1069.47 1308.58C1366.76 1228.92 1372.48 1015.49 1338.18 918.73" stroke="white"/>
</g>
<g style="mix-blend-mode:lighten">
<path d="M828.532 1754.1C789.051 1641.14 784.413 1395.31 1081.71 1315.65C1379.01 1235.99 1384.73 1022.56 1350.43 925.801" stroke="white"/>
</g>
<g style="mix-blend-mode:lighten">
<path d="M780.754 0.800023C898.319 23.0874 1113.53 141.987 1033.87 439.285C954.213 736.584 1136.19 848.252 1237.13 866.924" stroke="white"/>
</g>
<g style="mix-blend-mode:lighten">
<path d="M768.507 7.87107C886.073 30.1584 1101.29 149.058 1021.63 446.356C941.967 743.655 1123.94 855.323 1224.89 873.995" stroke="white"/>
</g>
<g style="mix-blend-mode:lighten">
<path d="M756.261 14.9421C873.827 37.2295 1089.04 156.129 1009.38 453.427C929.721 750.726 1111.7 862.394 1212.64 881.066" stroke="white"/>
</g>
<g style="mix-blend-mode:lighten">
<path d="M744.011 22.0132C861.577 44.3005 1076.79 163.2 997.131 460.498C917.471 757.797 1099.45 869.465 1200.39 888.137" stroke="white"/>
</g>
<g style="mix-blend-mode:lighten">
<path d="M731.765 29.0842C849.331 51.3716 1064.55 170.271 984.885 467.57C905.224 764.868 1087.2 876.536 1188.15 895.208" stroke="white"/>
</g>
<g style="mix-blend-mode:lighten">
<path d="M719.519 36.1552C837.085 58.4426 1052.3 177.342 972.639 474.641C892.978 771.939 1074.95 883.607 1175.9 902.279" stroke="white"/>
</g>
<g style="mix-blend-mode:lighten">
<path d="M707.269 43.2263C824.835 65.5137 1040.05 184.413 960.389 481.712C880.728 779.01 1062.7 890.678 1163.65 909.35" stroke="white"/>
</g>
<g style="mix-blend-mode:lighten">
<path d="M695.023 50.2976C812.589 72.5849 1027.8 191.484 948.143 488.783C868.482 786.082 1050.46 897.75 1151.4 916.422" stroke="white"/>
</g>
<g style="mix-blend-mode:lighten">
<path d="M682.773 57.3684C800.339 79.6557 1015.55 198.555 935.893 495.854C856.232 793.152 1038.21 904.821 1139.15 923.492" stroke="white"/>
</g>
<g style="mix-blend-mode:lighten">
<path d="M670.527 64.4397C788.092 86.727 1003.31 205.626 923.647 502.925C843.986 800.224 1025.96 911.892 1126.91 930.564" stroke="white"/>
</g>
<g style="mix-blend-mode:lighten">
<path d="M658.281 71.5107C775.846 93.7981 991.062 212.697 911.401 509.996C831.74 807.295 1013.72 918.963 1114.66 937.635" stroke="white"/>
</g>
<g style="mix-blend-mode:lighten">
<path d="M646.031 78.5818C763.596 100.869 978.812 219.769 899.151 517.067C819.49 814.366 1001.47 926.034 1102.41 944.706" stroke="white"/>
</g>
<g style="mix-blend-mode:lighten">
<path d="M633.785 85.6528C751.35 107.94 966.566 226.84 886.905 524.138C807.244 821.437 989.22 933.105 1090.17 951.777" stroke="white"/>
</g>
<g style="mix-blend-mode:lighten">
<path d="M621.539 92.7239C739.104 115.011 954.32 233.911 874.659 531.209C794.998 828.508 976.974 940.176 1077.92 958.848" stroke="white"/>
</g>
<g style="mix-blend-mode:lighten">
<path d="M609.289 99.7949C726.854 122.082 942.07 240.982 862.409 538.28C782.748 835.579 964.724 947.247 1065.67 965.919" stroke="white"/>
</g>
<g style="mix-blend-mode:lighten">
<path d="M597.043 106.866C714.608 129.153 929.824 248.053 850.163 545.351C770.502 842.65 952.478 954.318 1053.42 972.99" stroke="white"/>
</g>
<g style="mix-blend-mode:lighten">
<path d="M584.797 113.937C702.362 136.224 917.578 255.124 837.917 552.422C758.256 849.721 940.232 961.389 1041.18 980.061" stroke="white"/>
</g>
<g style="mix-blend-mode:lighten">
<path d="M572.547 121.008C690.112 143.295 905.328 262.195 825.667 559.493C746.006 856.792 927.982 968.46 1028.93 987.132" stroke="white"/>
</g>
<g style="mix-blend-mode:lighten">
<path d="M560.3 128.079C677.866 150.367 893.081 269.266 813.421 566.565C733.76 863.863 915.736 975.531 1016.68 994.203" stroke="white"/>
</g>
<g style="mix-blend-mode:lighten">
<path d="M548.054 135.15C665.62 157.437 880.835 276.337 801.174 573.635C721.513 870.934 903.49 982.602 1004.44 1001.27" stroke="white"/>
</g>
<g style="mix-blend-mode:lighten">
<path d="M535.804 142.221C653.37 164.509 868.585 283.408 788.924 580.707C709.263 878.005 891.24 989.674 992.186 1008.35" stroke="white"/>
</g>
<g style="mix-blend-mode:lighten">
<path d="M523.558 149.292C641.124 171.58 856.339 290.479 776.678 587.778C697.017 885.076 878.994 996.745 979.94 1015.42" stroke="white"/>
</g>
<g style="mix-blend-mode:lighten">
<path d="M511.312 156.363C628.878 178.651 844.093 297.55 764.432 594.849C684.771 892.147 866.748 1003.82 967.694 1022.49" stroke="white"/>
</g>
<g style="mix-blend-mode:lighten">
<path d="M499.062 163.435C616.628 185.722 831.843 304.621 752.182 601.92C672.521 899.218 854.498 1010.89 955.444 1029.56" stroke="white"/>
</g>
<g style="mix-blend-mode:lighten">
<path d="M486.816 170.506C604.381 192.793 819.597 311.692 739.936 608.991C660.275 906.29 842.252 1017.96 943.197 1036.63" stroke="white"/>
</g>
<g style="mix-blend-mode:lighten">
<path d="M474.57 177.577C592.135 199.864 807.351 318.763 727.69 616.062C648.029 913.361 830.006 1025.03 930.951 1043.7" stroke="white"/>
</g>
<g style="mix-blend-mode:lighten">
<path d="M462.32 184.648C579.885 206.935 795.101 325.834 715.44 623.133C635.779 920.432 817.756 1032.1 918.701 1050.77" stroke="white"/>
</g>
<g style="mix-blend-mode:lighten">
<path d="M450.074 191.719C567.639 214.006 782.855 332.905 703.194 630.204C623.533 927.503 805.509 1039.17 906.455 1057.84" stroke="white"/>
</g>
<g style="mix-blend-mode:lighten">
<path d="M437.824 198.79C555.389 221.077 770.605 339.977 690.944 637.275C611.283 934.574 793.259 1046.24 894.205 1064.91" stroke="white"/>
</g>
<g style="mix-blend-mode:lighten">
<path d="M425.578 205.861C543.143 228.148 758.359 347.048 678.698 644.346C599.037 941.645 781.013 1053.31 881.959 1071.99" stroke="white"/>
</g>
<g style="mix-blend-mode:lighten">
<path d="M413.332 212.932C530.897 235.219 746.113 354.119 666.452 651.417C586.791 948.716 768.767 1060.38 869.713 1079.06" stroke="white"/>
</g>
<g style="mix-blend-mode:lighten">
<path d="M401.082 220.003C518.647 242.291 733.863 361.19 654.202 658.488C574.541 955.787 756.517 1067.46 857.463 1086.13" stroke="white"/>
</g>
<g style="mix-blend-mode:lighten">
<path d="M388.836 227.074C506.401 249.361 721.617 368.261 641.956 665.559C562.295 962.858 744.271 1074.53 845.217 1093.2" stroke="white"/>
</g>
<g style="mix-blend-mode:lighten">
<path d="M376.59 234.145C494.155 256.433 709.371 375.332 629.71 672.631C550.049 969.929 732.025 1081.6 832.971 1100.27" stroke="white"/>
</g>
<g style="mix-blend-mode:lighten">
<path d="M364.34 241.216C481.905 263.504 697.121 382.403 617.46 679.702C537.799 977 719.775 1088.67 820.721 1107.34" stroke="white"/>
</g>
<g style="mix-blend-mode:lighten">
<path d="M352.093 248.287C469.659 270.575 684.874 389.474 605.213 686.773C525.553 984.071 707.529 1095.74 808.475 1114.41" stroke="white"/>
</g>
<g style="mix-blend-mode:lighten">
<path d="M339.847 255.358C457.413 277.646 672.628 396.545 592.967 693.844C513.306 991.142 695.283 1102.81 796.229 1121.48" stroke="white"/>
</g>
<g style="mix-blend-mode:lighten">
<path d="M327.597 262.429C445.163 284.717 660.378 403.616 580.717 700.915C501.056 998.213 683.033 1109.88 783.979 1128.55" stroke="white"/>
</g>
<g style="mix-blend-mode:lighten">
<path d="M315.351 269.5C432.917 291.788 648.132 410.687 568.471 707.986C488.81 1005.28 670.787 1116.95 771.733 1135.62" stroke="white"/>
</g>
<g style="mix-blend-mode:lighten">
<path d="M303.105 276.572C420.671 298.859 635.886 417.758 556.225 715.057C476.564 1012.36 658.541 1124.02 759.487 1142.7" stroke="white"/>
</g>
<g style="mix-blend-mode:lighten">
<path d="M290.855 283.643C408.421 305.93 623.636 424.83 543.975 722.128C464.314 1019.43 646.291 1131.09 747.237 1149.77" stroke="white"/>
</g>
<g style="mix-blend-mode:lighten">
<path d="M278.609 290.714C396.174 313.001 611.39 431.901 531.729 729.199C452.068 1026.5 634.045 1138.17 734.99 1156.84" stroke="white"/>
</g>
<g style="mix-blend-mode:lighten">
<path d="M266.363 297.785C383.928 320.072 599.144 438.972 519.483 736.27C439.822 1033.57 621.799 1145.24 722.744 1163.91" stroke="white"/>
</g>
<g style="mix-blend-mode:lighten">
<path d="M254.113 304.856C371.678 327.143 586.894 446.043 507.233 743.341C427.572 1040.64 609.549 1152.31 710.494 1170.98" stroke="white"/>
</g>
<g style="mix-blend-mode:lighten">
<path d="M241.867 311.927C359.432 334.214 574.648 453.114 494.987 750.412C415.326 1047.71 597.302 1159.38 698.248 1178.05" stroke="white"/>
</g>
<g style="mix-blend-mode:lighten">
<path d="M229.621 318.998C347.186 341.285 562.402 460.185 482.741 757.483C403.08 1054.78 585.056 1166.45 686.002 1185.12" stroke="white"/>
</g>
<g style="mix-blend-mode:lighten">
<path d="M217.371 326.069C334.936 348.356 550.152 467.256 470.491 764.554C390.83 1061.85 572.806 1173.52 673.752 1192.19" stroke="white"/>
</g>
<g style="mix-blend-mode:lighten">
<path d="M205.125 333.14C322.69 355.427 537.906 474.327 458.245 771.625C378.584 1068.92 560.56 1180.59 661.506 1199.26" stroke="white"/>
</g>
<g style="mix-blend-mode:lighten">
<path d="M192.879 340.211C310.444 362.499 525.66 481.398 445.999 778.696C366.338 1076 548.314 1187.66 649.26 1206.34" stroke="white"/>
</g>
<g style="mix-blend-mode:lighten">
<path d="M180.629 347.282C298.194 369.57 513.41 488.469 433.749 785.768C354.088 1083.07 536.064 1194.73 637.01 1213.41" stroke="white"/>
</g>
<g style="mix-blend-mode:lighten">
<path d="M168.382 354.353C285.948 376.641 501.163 495.54 421.503 792.839C341.842 1090.14 523.818 1201.81 624.764 1220.48" stroke="white"/>
</g>
<g style="mix-blend-mode:lighten">
<path d="M156.136 361.425C273.702 383.712 488.917 502.611 409.256 799.91C329.596 1097.21 511.572 1208.88 612.518 1227.55" stroke="white"/>
</g>
<g style="mix-blend-mode:lighten">
<path d="M623.043 46.6294C742.371 37.7292 981.027 96.8753 981.027 404.661C981.027 712.448 1185.7 773.212 1288.04 765.121" stroke="white"/>
</g>
<g style="mix-blend-mode:lighten">
<path d="M613.043 56.6292C732.371 47.729 971.027 106.875 971.027 414.661C971.027 722.447 1175.7 783.212 1278.04 775.12" stroke="white"/>
</g>
<g style="mix-blend-mode:lighten">
<path d="M603.043 66.6292C722.371 57.729 961.027 116.875 961.027 424.661C961.027 732.447 1165.7 793.212 1268.04 785.12" stroke="white"/>
</g>
<g style="mix-blend-mode:lighten">
<path d="M593.043 76.6292C712.371 67.729 951.027 126.875 951.027 434.661C951.027 742.447 1155.7 803.212 1258.04 795.12" stroke="white"/>
</g>
<g style="mix-blend-mode:lighten">
<path d="M583.043 86.6292C702.371 77.729 941.027 136.875 941.027 444.661C941.027 752.447 1145.7 813.212 1248.04 805.12" stroke="white"/>
</g>
<g style="mix-blend-mode:lighten">
<path d="M573.043 96.6292C692.371 87.729 931.027 146.875 931.027 454.661C931.027 762.447 1135.7 823.212 1238.04 815.12" stroke="white"/>
</g>
<g style="mix-blend-mode:lighten">
<path d="M563.043 106.629C682.371 97.729 921.027 156.875 921.027 464.661C921.027 772.447 1125.7 833.212 1228.04 825.12" stroke="white"/>
</g>
<g style="mix-blend-mode:lighten">
<path d="M553.043 116.629C672.371 107.729 911.027 166.875 911.027 474.661C911.027 782.447 1115.7 843.212 1218.04 835.12" stroke="white"/>
</g>
<g style="mix-blend-mode:lighten">
<path d="M543.043 126.629C662.371 117.729 901.027 176.875 901.027 484.661C901.027 792.448 1105.7 853.212 1208.04 845.121" stroke="white"/>
</g>
<g style="mix-blend-mode:lighten">
<path d="M533.043 136.629C652.371 127.729 891.027 186.875 891.027 494.661C891.027 802.448 1095.7 863.212 1198.04 855.121" stroke="white"/>
</g>
<g style="mix-blend-mode:lighten">
<path d="M523.043 146.629C642.371 137.729 881.027 196.875 881.027 504.661C881.027 812.448 1085.7 873.212 1188.04 865.121" stroke="white"/>
</g>
<g style="mix-blend-mode:lighten">
<path d="M513.043 156.629C632.371 147.729 871.027 206.875 871.027 514.661C871.027 822.447 1075.7 883.212 1178.04 875.12" stroke="white"/>
</g>
<g style="mix-blend-mode:lighten">
<path d="M503.043 166.629C622.371 157.729 861.027 216.875 861.027 524.661C861.027 832.447 1065.7 893.212 1168.04 885.12" stroke="white"/>
</g>
<g style="mix-blend-mode:lighten">
<path d="M493.043 176.629C612.371 167.729 851.027 226.875 851.027 534.661C851.027 842.447 1055.7 903.212 1158.04 895.12" stroke="white"/>
</g>
<g style="mix-blend-mode:lighten">
<path d="M483.043 186.629C602.371 177.729 841.027 236.875 841.027 544.661C841.027 852.447 1045.7 913.212 1148.04 905.12" stroke="white"/>
</g>
<g style="mix-blend-mode:lighten">
<path d="M473.043 196.629C592.371 187.729 831.027 246.875 831.027 554.661C831.027 862.447 1035.7 923.212 1138.04 915.12" stroke="white"/>
</g>
<g style="mix-blend-mode:lighten">
<path d="M463.043 206.629C582.371 197.729 821.027 256.875 821.027 564.661C821.027 872.447 1025.7 933.212 1128.04 925.12" stroke="white"/>
</g>
<g style="mix-blend-mode:lighten">
<path d="M453.043 216.629C572.371 207.729 811.027 266.875 811.027 574.661C811.027 882.448 1015.7 943.212 1118.04 935.121" stroke="white"/>
</g>
<g style="mix-blend-mode:lighten">
<path d="M443.043 226.629C562.371 217.729 801.027 276.875 801.027 584.661C801.027 892.448 1005.7 953.212 1108.04 945.121" stroke="white"/>
</g>
<g style="mix-blend-mode:lighten">
<path d="M433.043 236.629C552.371 227.729 791.027 286.875 791.027 594.661C791.027 902.448 995.704 963.212 1098.04 955.121" stroke="white"/>
</g>
<g style="mix-blend-mode:lighten">
<path d="M423.043 246.629C542.371 237.729 781.027 296.875 781.027 604.661C781.027 912.447 985.704 973.212 1088.04 965.12" stroke="white"/>
</g>
<g style="mix-blend-mode:lighten">
<path d="M413.043 256.629C532.371 247.729 771.027 306.875 771.027 614.661C771.027 922.447 975.704 983.212 1078.04 975.12" stroke="white"/>
</g>
<g style="mix-blend-mode:lighten">
<path d="M403.043 266.629C522.371 257.729 761.027 316.875 761.027 624.661C761.027 932.447 965.704 993.212 1068.04 985.12" stroke="white"/>
</g>
<g style="mix-blend-mode:lighten">
<path d="M393.043 276.629C512.371 267.729 751.027 326.875 751.027 634.661C751.027 942.447 955.704 1003.21 1058.04 995.12" stroke="white"/>
</g>
<g style="mix-blend-mode:lighten">
<path d="M383.043 286.629C502.371 277.729 741.027 336.875 741.027 644.661C741.027 952.447 945.704 1013.21 1048.04 1005.12" stroke="white"/>
</g>
<g style="mix-blend-mode:lighten">
<path d="M373.043 296.629C492.371 287.729 731.027 346.875 731.027 654.661C731.027 962.447 935.704 1023.21 1038.04 1015.12" stroke="white"/>
</g>
<g style="mix-blend-mode:lighten">
<path d="M363.043 306.629C482.371 297.729 721.027 356.875 721.027 664.661C721.027 972.447 925.704 1033.21 1028.04 1025.12" stroke="white"/>
</g>
<g style="mix-blend-mode:lighten">
<path d="M353.043 316.629C472.371 307.729 711.027 366.875 711.027 674.661C711.027 982.447 915.704 1043.21 1018.04 1035.12" stroke="white"/>
</g>
<g style="mix-blend-mode:lighten">
<path d="M343.043 326.629C462.371 317.729 701.027 376.875 701.027 684.661C701.027 992.448 905.704 1053.21 1008.04 1045.12" stroke="white"/>
</g>
<g style="mix-blend-mode:lighten">
<path d="M333.043 336.629C452.371 327.729 691.027 386.875 691.027 694.661C691.027 1002.45 895.704 1063.21 998.043 1055.12" stroke="white"/>
</g>
<g style="mix-blend-mode:lighten">
<path d="M323.043 346.629C442.371 337.729 681.027 396.875 681.027 704.661C681.027 1012.45 885.704 1073.21 988.043 1065.12" stroke="white"/>
</g>
<g style="mix-blend-mode:lighten">
<path d="M313.043 356.629C432.371 347.729 671.027 406.875 671.027 714.661C671.027 1022.45 875.704 1083.21 978.043 1075.12" stroke="white"/>
</g>
<g style="mix-blend-mode:lighten">
<path d="M303.043 366.629C422.371 357.729 661.027 416.875 661.027 724.661C661.027 1032.45 865.704 1093.21 968.043 1085.12" stroke="white"/>
</g>
<g style="mix-blend-mode:lighten">
<path d="M293.043 376.629C412.371 367.729 651.027 426.875 651.027 734.661C651.027 1042.45 855.704 1103.21 958.043 1095.12" stroke="white"/>
</g>
<g style="mix-blend-mode:lighten">
<path d="M283.043 386.629C402.371 377.729 641.027 436.875 641.027 744.661C641.027 1052.45 845.704 1113.21 948.043 1105.12" stroke="white"/>
</g>
<g style="mix-blend-mode:lighten">
<path d="M273.043 396.629C392.371 387.729 631.027 446.875 631.027 754.661C631.027 1062.45 835.704 1123.21 938.043 1115.12" stroke="white"/>
</g>
<g style="mix-blend-mode:lighten">
<path d="M263.043 406.629C382.371 397.729 621.027 456.875 621.027 764.661C621.027 1072.45 825.704 1133.21 928.043 1125.12" stroke="white"/>
</g>
<g style="mix-blend-mode:lighten">
<path d="M253.043 416.629C372.371 407.729 611.027 466.875 611.027 774.661C611.027 1082.45 815.704 1143.21 918.043 1135.12" stroke="white"/>
</g>
<g style="mix-blend-mode:lighten">
<path d="M243.043 426.629C362.371 417.729 601.027 476.875 601.027 784.661C601.027 1092.45 805.704 1153.21 908.043 1145.12" stroke="white"/>
</g>
<g style="mix-blend-mode:lighten">
<path d="M233.043 436.629C352.371 427.729 591.027 486.875 591.027 794.661C591.027 1102.45 795.704 1163.21 898.043 1155.12" stroke="white"/>
</g>
<g style="mix-blend-mode:lighten">
<path d="M223.043 446.629C342.371 437.729 581.027 496.875 581.027 804.661C581.027 1112.45 785.704 1173.21 888.043 1165.12" stroke="white"/>
</g>
<g style="mix-blend-mode:lighten">
<path d="M213.043 456.629C332.371 447.729 571.027 506.875 571.027 814.661C571.027 1122.45 775.704 1183.21 878.043 1175.12" stroke="white"/>
</g>
<g style="mix-blend-mode:lighten">
<path d="M203.043 466.629C322.371 457.729 561.027 516.875 561.027 824.661C561.027 1132.45 765.704 1193.21 868.043 1185.12" stroke="white"/>
</g>
<g style="mix-blend-mode:lighten">
<path d="M193.043 476.629C312.371 467.729 551.027 526.875 551.027 834.661C551.027 1142.45 755.704 1203.21 858.043 1195.12" stroke="white"/>
</g>
<g style="mix-blend-mode:lighten">
<path d="M183.043 486.629C302.371 477.729 541.027 536.875 541.027 844.661C541.027 1152.45 745.704 1213.21 848.043 1205.12" stroke="white"/>
</g>
<g style="mix-blend-mode:lighten">
<path d="M173.043 496.629C292.371 487.729 531.027 546.875 531.027 854.661C531.027 1162.45 735.704 1223.21 838.043 1215.12" stroke="white"/>
</g>
<g style="mix-blend-mode:lighten">
<path d="M163.043 506.629C282.371 497.729 521.027 556.875 521.027 864.661C521.027 1172.45 725.704 1233.21 828.043 1225.12" stroke="white"/>
</g>
<g style="mix-blend-mode:lighten">
<path d="M153.043 516.629C272.371 507.729 511.027 566.875 511.027 874.661C511.027 1182.45 715.704 1243.21 818.043 1235.12" stroke="white"/>
</g>
<g style="mix-blend-mode:lighten">
<path d="M143.043 526.629C262.371 517.729 501.027 576.875 501.027 884.661C501.027 1192.45 705.704 1253.21 808.043 1245.12" stroke="white"/>
</g>
<g style="mix-blend-mode:lighten">
<path d="M133.043 536.629C252.371 527.729 491.027 586.875 491.027 894.661C491.027 1202.45 695.704 1263.21 798.043 1255.12" stroke="white"/>
</g>
<g style="mix-blend-mode:lighten">
<path d="M123.043 546.629C242.371 537.729 481.027 596.875 481.027 904.661C481.027 1212.45 685.704 1273.21 788.043 1265.12" stroke="white"/>
</g>
<g style="mix-blend-mode:lighten">
<path d="M113.043 556.629C232.371 547.729 471.027 606.875 471.027 914.661C471.027 1222.45 675.704 1283.21 778.043 1275.12" stroke="white"/>
</g>
</svg>
