<svg class="is-pencil" id="SvgjsSvg1001" width="550" height="550" xmlns="http://www.w3.org/2000/svg" version="1.1" xmlns:xlink="http://www.w3.org/1999/xlink" xmlns:svgjs="http://svgjs.com/svgjs"><defs id="SvgjsDefs1002"></defs><g id="SvgjsG1008"><svg xmlns="http://www.w3.org/2000/svg" enable-background="new 0 0 5000 5000" viewBox="0 0 5000 5000" width="550" height="550"><g fill="#000000" class="color000 svgShape"><polygon fill="#fcbe2e" points="4342.561 4083.904 4083.904 4342.561 972.944 1231.601 517.477 517.477 1231.601 972.944" class="colorfcbe2e svgShape"></polygon><path fill="#1f1d36" d="M4083.903,4350.562c-2.122,0-4.157-0.843-5.657-2.343L967.287,1237.258
					c-0.411-0.411-0.775-0.865-1.088-1.355L510.732,521.779c-2.018-3.164-1.565-7.305,1.088-9.959
					c2.654-2.653,6.795-3.105,9.959-1.088l714.123,455.467c0.49,0.312,0.944,0.677,1.355,1.088l3110.96,3110.959
					c3.124,3.124,3.124,8.189,0,11.313l-258.658,258.659C4088.06,4349.719,4086.025,4350.562,4083.903,4350.562z M979.218,1226.562
					l3104.685,3104.686l247.344-247.345L1226.562,979.218L543.675,543.675L979.218,1226.562z" class="color1f1d36 svgShape"></path><polygon fill="#ffffff" points="972.944 1231.601 1153.802 1153.802 1231.601 972.944 517.477 517.477" class="colorfff svgShape"></polygon><path fill="#1f1d36" d="M972.947,1239.602c-2.664,0-5.239-1.333-6.749-3.699L510.732,521.779
					c-2.018-3.164-1.565-7.305,1.088-9.958c2.653-2.654,6.795-3.106,9.958-1.088l714.124,455.466
					c3.307,2.109,4.597,6.304,3.047,9.906l-77.8,180.858c-0.809,1.88-2.307,3.379-4.188,4.188l-180.858,77.8
					C975.08,1239.391,974.006,1239.602,972.947,1239.602z M543.674,543.674l432.357,677.89l171.681-73.852l73.852-171.681
					L543.674,543.674z" class="color1f1d36 svgShape"></path><g fill="#000000" class="color000 svgShape"><polygon fill="#1f1d36" points="517.478 517.478 696.731 798.526 771.878 771.878 798.526 696.731" class="color1f1d36 svgShape"></polygon><path fill="#1f1d36" d="M696.733,806.527c-2.673,0-5.244-1.344-6.747-3.699L510.733,521.779
					c-2.018-3.164-1.565-7.305,1.088-9.958c2.654-2.654,6.795-3.105,9.958-1.088l281.048,179.253
					c3.141,2.003,4.483,5.908,3.238,9.419l-26.648,75.147c-0.806,2.272-2.594,4.06-4.866,4.866l-75.146,26.648
					C698.527,806.377,697.625,806.527,696.733,806.527z M543.675,543.675l156.379,245.184l65.557-23.248l23.248-65.558
					L543.675,543.675z" class="color1f1d36 svgShape"></path></g><path fill="#1f1d36" d="M4081.883,4089.883c-2.047,0-4.095-0.781-5.657-2.344L1148.145,1159.458
					c-3.125-3.124-3.125-8.189,0-11.313c3.124-3.125,8.189-3.125,11.313,0l2928.081,2928.081c3.125,3.125,3.125,8.19,0,11.313
					C4085.978,4089.102,4083.931,4089.883,4081.883,4089.883z" class="color1f1d36 svgShape"></path><g fill="#000000" class="color000 svgShape"><path fill="#e64f25" d="M4465.446,4377.791l-87.656,87.656c-28.248,28.248-74.048,28.248-102.296,0l-272.174-272.174
					l189.951-189.951l272.174,272.174C4493.694,4303.743,4493.694,4349.542,4465.446,4377.791z" class="colore64f25 svgShape"></path><path fill="#1f1d36" d="M4326.643,4494.595c-20.572,0-41.144-7.831-56.806-23.491l-272.173-272.174
					c-3.124-3.125-3.124-8.189,0-11.314l189.951-189.951c3.126-3.123,8.19-3.122,11.314,0l272.174,272.174
					c31.321,31.322,31.321,82.287,0,113.61l0,0l-87.655,87.655C4367.786,4486.764,4347.215,4494.595,4326.643,4494.595z
					 M4014.635,4193.272l266.517,266.517c25.083,25.082,65.899,25.082,90.982,0l87.655-87.655
					c25.084-25.084,25.084-65.898,0-90.981l-266.517-266.518L4014.635,4193.272z M4465.446,4377.791h0.01H4465.446z" class="color1f1d36 svgShape"></path><g fill="#000000" class="color000 svgShape"><polygon fill="#1f1d36" points="4334.478 4144.526 4193.783 4383.734 4144.526 4334.478" class="color1f1d36 svgShape"></polygon><path fill="#1f1d36" d="M4193.782,4391.734c-2.108,0-4.147-0.833-5.657-2.343l-49.256-49.257
					c-3.124-3.125-3.124-8.189,0-11.314l189.951-189.951c2.847-2.849,7.367-3.134,10.553-0.67c3.185,2.465,4.042,6.912,2,10.383
					l-140.695,239.208c-1.255,2.134-3.428,3.566-5.884,3.88C4194.456,4391.713,4194.118,4391.734,4193.782,4391.734z
					 M4155.84,4334.478l36.288,36.289l103.655-176.231L4155.84,4334.478z" class="color1f1d36 svgShape"></path></g><g fill="#000000" class="color000 svgShape"><path fill="#ffffff" d="M4380.956,4098.049l-282.907,282.906c-5.301,5.301-13.896,5.301-19.197,0l-138.422-138.422
					c-5.301-5.301-5.301-13.896,0-19.197l282.906-282.907c5.301-5.301,13.896-5.301,19.197,0l138.422,138.422
					C4386.257,4084.153,4386.257,4092.748,4380.956,4098.049z" class="colorfff svgShape"></path><path fill="#1f1d36" d="M4088.45,4392.932c-5.763,0-11.181-2.244-15.256-6.319l-138.422-138.422
					c-8.411-8.411-8.411-22.099,0-30.511l282.906-282.907c8.413-8.411,22.101-8.412,30.512,0l138.422,138.422
					c4.075,4.075,6.319,9.493,6.319,15.256c0,5.764-2.245,11.182-6.32,15.256l-282.905,282.906
					C4099.632,4390.687,4094.214,4392.932,4088.45,4392.932z M4232.935,3944.457c-1.428,0-2.855,0.543-3.942,1.63
					l-282.905,282.906c-2.174,2.173-2.174,5.71,0,7.883l138.422,138.422c1.053,1.054,2.453,1.634,3.941,1.634
					c1.489,0,2.889-0.58,3.941-1.633l282.906-282.907c0.001,0,0.001,0,0.001,0c1.053-1.053,1.633-2.452,1.633-3.941
					c0-1.488-0.58-2.889-1.634-3.941l-138.422-138.422C4235.79,3945,4234.362,3944.457,4232.935,3944.457z" class="color1f1d36 svgShape"></path><path fill="#1f1d36" d="M4105.88 4322.018c-2.048 0-4.095-.781-5.657-2.343l-100.786-100.785c-3.124-3.125-3.124-8.189 0-11.314 3.125-3.123 8.189-3.123 11.314 0l100.786 100.785c3.124 3.125 3.124 8.189 0 11.314C4109.975 4321.236 4107.928 4322.018 4105.88 4322.018zM4157.914 4269.983c-2.048 0-4.095-.781-5.657-2.343l-100.785-100.785c-3.124-3.125-3.124-8.189 0-11.314 3.125-3.123 8.189-3.123 11.314 0l100.785 100.785c3.124 3.125 3.124 8.189 0 11.314C4162.009 4269.202 4159.962 4269.983 4157.914 4269.983zM4209.948 4217.948c-2.048 0-4.095-.781-5.657-2.343l-100.785-100.785c-3.124-3.125-3.124-8.189 0-11.314 3.125-3.123 8.189-3.123 11.314 0l100.785 100.785c3.124 3.125 3.124 8.189 0 11.314C4214.043 4217.167 4211.996 4217.948 4209.948 4217.948zM4261.983 4165.914c-2.048 0-4.095-.781-5.657-2.343l-100.785-100.785c-3.124-3.125-3.124-8.189 0-11.314 3.125-3.123 8.189-3.123 11.314 0l100.785 100.785c3.124 3.125 3.124 8.189 0 11.314C4266.078 4165.133 4264.031 4165.914 4261.983 4165.914zM4314.018 4113.88c-2.048 0-4.095-.781-5.657-2.343l-100.785-100.786c-3.124-3.125-3.124-8.189 0-11.314 3.126-3.123 8.19-3.122 11.314 0l100.785 100.786c3.124 3.125 3.124 8.189 0 11.314C4318.112 4113.099 4316.064 4113.88 4314.018 4113.88z" class="color1f1d36 svgShape"></path></g></g></g></svg></g></svg>